<svg xmlns="http://www.w3.org/2000/svg" xmlns:xlink="http://www.w3.org/1999/xlink" version="1.1" width="60" height="60" viewBox="0 0 60 60" xml:space="preserve">
<desc>Created with Fabric.js 3.5.0</desc>
<defs>
</defs>
<rect x="0" y="0" width="100%" height="100%" fill="#ffffff"/>
<g transform="matrix(0.0187 0 0 0.0187 30 30)" id="435284">
<g style="" vector-effect="non-scaling-stroke">
		<g transform="matrix(0.1333 0 0 -0.1333 -0.4 -0.3999)" id="path14">
<path style="stroke: none; stroke-width: 1; stroke-dasharray: none; stroke-linecap: butt; stroke-dashoffset: 0; stroke-linejoin: miter; stroke-miterlimit: 4; is-custom-font: none; font-file-url: none; fill: rgb(0,0,0); fill-rule: evenodd; opacity: 1;" transform=" translate(-12000, -12000)" d="M 0 24000 H 24000 V 0 H 0 v 24000" stroke-linecap="round"/>
</g>
		<g transform="matrix(0.1333 0 0 -0.1333 292.308 -227.1787)" id="path16">
<path style="stroke: none; stroke-width: 1; stroke-dasharray: none; stroke-linecap: butt; stroke-dashoffset: 0; stroke-linejoin: miter; stroke-miterlimit: 4; is-custom-font: none; font-file-url: none; fill: rgb(254,162,41); fill-rule: evenodd; opacity: 1;" transform=" translate(-14192.65, -13703.2)" d="m 15136.7 11141.2 c -41.7 933.7 -614.4 1730 -1424.9 2097.1 v 621 c 0 924.3 -331.5 1767.4 -876.5 2405.9 c 1558 -379.2 2714.7 -1783.5 2714.7 -3458.2 c 0 -601.9 -149.6 -1168.8 -413.3 -1665.8" stroke-linecap="round"/>
</g>
		<g transform="matrix(0.1333 0 0 -0.1333 3.7738 877.3468)" id="path18">
<path style="stroke: none; stroke-width: 1; stroke-dasharray: none; stroke-linecap: butt; stroke-dashoffset: 0; stroke-linejoin: miter; stroke-miterlimit: 4; is-custom-font: none; font-file-url: none; fill: rgb(145,0,0); fill-rule: evenodd; opacity: 1;" transform=" translate(-12029.1338, -5419.5976)" d="m 10396.7 6124.7 c 354.9 -130 548.6 -505.5 459.4 -863.9 c -59.7 298.2 -251.9 550 -536.2 654.2 c -284.3 104.2 -593.76 36.1 -831.98 -153 c 163.56 331.2 553.98 492.7 908.78 362.7 z m -1320.01 467.4 c -271.57 -99.5 -419.82 -386.8 -351.63 -661.2 c 45.7 228.2 192.81 421 410.44 500.7 c 217.63 79.7 454.45 27.6 636.76 -117.1 c -125.19 253.5 -423.99 377.1 -695.57 277.6 z m 3352.01 -844 c -177.8 -15.2 -312.7 -162.2 -316.7 -336.6 c 64.3 128.4 183.2 219.3 325.6 231.4 c 142.5 12.2 275 -57.2 360.1 -173 c -33.4 171.2 -191.2 293.3 -369 278.2 z m -1164 -492.5 c -356.9 6.6 -655.7 -257.9 -699.6 -604.1 c 154.4 242.3 409.7 398.5 695.7 393.1 c 285.9 -5.3 535.2 -170.9 680.4 -418.7 c -31 347.5 -319.7 623 -676.5 629.7 z m 271.6 902.7 c -289 -105.9 -446.7 -411.6 -374.2 -703.6 c 48.7 242.9 205.2 447.9 436.7 532.8 c 231.6 84.8 483.5 29.4 677.5 -124.6 c -133.2 269.7 -451.1 401.2 -740 295.4 z m 1521 -1081.6 c 354.8 -130 548.5 -505.5 459.4 -864 c -59.7 298.2 -252 550 -536.3 654.2 c -284.3 104.2 -593.7 36.1 -832 -153 c 163.6 331.2 554 492.7 908.9 362.8 z m 1924.3 1515.4 c 271.6 -99.5 419.8 -386.8 351.6 -661.2 c -45.7 228.2 -192.8 421 -410.4 500.7 c -217.6 79.7 -454.5 27.6 -636.8 -117.1 c 125.2 253.5 424 377.1 695.6 277.6 z M 14632 5721.2 c 281.2 -8.6 506.2 -228.5 527.4 -502.8 c -112.2 196.7 -307.1 329.6 -532.5 336.5 c -225.4 6.9 -428.1 -113.8 -552.1 -303.3 c 37.9 272.4 275.9 478.1 557.2 469.6 z m -970.5 403.5 c -354.8 -130 -548.5 -505.5 -459.4 -863.9 c 59.7 298.2 251.9 550 536.3 654.2 c 284.3 104.2 593.7 36.1 832 -153 c -163.6 331.2 -554 492.7 -908.9 362.7 z M 9426.32 5721.2 c -281.26 -8.6 -506.24 -228.5 -527.4 -502.8 c 112.16 196.7 307.09 329.6 532.47 336.5 c 225.38 6.9 428.06 -113.8 552.05 -303.3 c -37.88 272.4 -275.88 478.2 -557.12 469.6" stroke-linecap="round"/>
</g>
		<g transform="matrix(0.1333 0 0 -0.1333 187.6287 261.3147)" id="path20">
<path style="stroke: none; stroke-width: 1; stroke-dasharray: none; stroke-linecap: butt; stroke-dashoffset: 0; stroke-linejoin: miter; stroke-miterlimit: 4; is-custom-font: none; font-file-url: none; fill: rgb(254,162,41); fill-rule: evenodd; opacity: 1;" transform=" translate(-13407.45, -10039.95)" d="m 12470.5 9279.9 c 4.6 165.7 11.1 332.7 19.4 500.8 h 811.3 l 197.9 1019.3 c 83.4 -38 227.6 -109.1 421.2 -224.4 c 159.1 -127.8 301.7 -275.1 424.1 -438.3 c -514.2 -453.7 -1160.5 -761.2 -1873.9 -857.4" stroke-linecap="round"/>
</g>
		<g transform="matrix(0.1333 0 0 -0.1333 -192.2121 261.0281)" id="path22">
<path style="stroke: none; stroke-width: 1; stroke-dasharray: none; stroke-linecap: butt; stroke-dashoffset: 0; stroke-linejoin: miter; stroke-miterlimit: 4; is-custom-font: none; font-file-url: none; fill: rgb(254,162,41); fill-rule: evenodd; opacity: 1;" transform=" translate(-10558.64, -10042.1)" d="m 9636.78 10137.3 c 122.44 163.2 265.05 310.5 424.22 438.3 v 0 c 193.5 115.3 337.8 186.4 421.1 224.4 L 10680 9780.7 h 781.3 c 8.2 -166.6 14.6 -332.3 19.2 -496.5 c -701.4 100.7 -1336.8 405.7 -1843.72 853.1" stroke-linecap="round"/>
</g>
		<g transform="matrix(0.1333 0 0 -0.1333 -1.4815 -130.3402)" id="path24">
<path style="stroke: none; stroke-width: 1; stroke-dasharray: none; stroke-linecap: butt; stroke-dashoffset: 0; stroke-linejoin: miter; stroke-miterlimit: 4; is-custom-font: none; font-file-url: none; fill: rgb(145,0,0); fill-rule: evenodd; opacity: 1;" transform=" translate(-11990.62, -12975.85)" d="m 15684.1 6178.4 c 1047.7 2323.4 3230 2996 3230 6679.4 c 0 3823.8 -3099.7 6923.5 -6923.5 6923.5 c -3823.76 0 -6923.46 -3099.7 -6923.46 -6923.5 c 0 -1614.1 552.53 -3099.5 1478.55 -4276.8 v -1.9 l 4.69 -4 c 784.83 -995.4 1329.78 -1415.7 1722.32 -2313.4 c 38.63 271.7 272.04 480.5 554.26 480.5 c 64.86 0 127.13 -11 185.07 -31.3 c 40.69 398.4 377.17 709.3 786.26 709.3 c 436.51 0 790.41 -354 790.41 -790.6 c 0 -171.3 -54.4 -329.8 -146.9 -459.2 v 0 c 0 0 259.1 210.1 259.3 653.2 c 302.4 -7.8 545.2 -255.5 545.2 -559.8 c 0 -15.2 -0.7 -30.2 -1.9 -45.1 c 241.8 1037.8 280.4 2267.9 216.9 3562 H 10680 l -197.9 1019.3 c -83.3 -38 -227.6 -109.1 -421.2 -224.4 c -323.92 -260.2 -579.51 -601.3 -735.64 -992.5 c -303.5 404.1 -483.24 905.6 -483.24 1448.9 c 0 892.9 485.5 1672.9 1208.08 2093.1 c 37.4 -490 155.5 -1048 337.9 -1470.7 c -60 320 -118.6 1583.9 -118.6 1583.9 v 621 c 0 1336 692.3 2502.3 1721.2 3126.4 c 1028.9 -624.1 1721.2 -1790.4 1721.2 -3126.4 v -621 c 0 0 -58.5 -1263.9 -118.5 -1583.9 c 182.3 422.7 300.4 980.7 337.8 1470.7 c 722.6 -420.2 1208.1 -1200.2 1208.1 -2093.1 c 0 -543.3 -179.7 -1044.8 -483.2 -1448.9 c -156.2 391.2 -411.8 732.3 -735.7 992.5 c -193.6 115.3 -337.8 186.4 -421.2 224.4 l -197.9 -1019.3 h -811.3 c -63.5 -1294.1 -24.9 -2524.2 216.8 -3562 c -1.2 14.9 -1.8 29.9 -1.8 45.1 c 0 304.3 242.7 552 545.1 559.8 c 0.2 -443.1 259.3 -653.2 259.3 -653.2 v 0 c -92.4 129.4 -146.8 287.9 -146.8 459.2 c 0 436.6 353.8 790.6 790.4 790.6 c 409.1 0 745.5 -310.9 786.2 -709.3 c 58 20.3 120.2 31.3 185.1 31.3 c 309.2 0 559.9 -250.7 559.9 -560 z m 418.2 9292.3 c -97.6 -343.4 -40.9 -274.5 -340.1 -390.1 c 299.5 -111.9 239.4 -47 340.1 -390 c 97.6 343.4 41 274.4 340.1 390 c -299.4 111.9 -239.3 47 -340.1 390.1 z m 212.5 -4248.2 c 63.5 -223.5 26.6 -178.7 221.4 -253.9 c -194.9 -72.8 -155.8 -30.6 -221.4 -253.9 c -63.5 223.5 -26.7 178.7 -221.4 253.9 c 194.9 72.9 155.8 30.6 221.4 253.9 z M 13965.2 8854.7 c -77.9 -274 -32.7 -219 -271.3 -311.2 c 238.8 -89.3 190.9 -37.5 271.3 -311.2 c 77.8 274 32.7 219 271.3 311.2 c -238.9 89.3 -190.9 37.5 -271.3 311.2 z m -6488.99 2910.6 c 63.52 -223.5 26.66 -178.7 221.39 -253.9 c -194.92 -72.9 -155.79 -30.6 -221.39 -253.9 c -63.52 223.5 -26.66 178.7 -221.4 253.9 c 194.92 72.8 155.8 30.6 221.4 253.9 z M 9587.78 9282.2 c -128.16 -451.1 -53.79 -360.6 -446.71 -512.4 c 393.29 -147 314.35 -61.7 446.71 -512.4 c 128.16 451.1 53.79 360.6 446.72 512.4 c -393.29 147 -314.35 61.7 -446.72 512.4 z m 2421.22 8989 c -56.3 -198.2 -23.6 -158.4 -196.2 -225.1 c 172.8 -64.6 138.1 -27.1 196.2 -225.1 c 56.4 198.2 23.7 158.4 196.3 225.1 c -172.8 64.6 -138.1 27.1 -196.3 225.1 z M 9131.48 13829.7 c 71.29 -250.9 29.92 -200.6 248.47 -285 c -218.75 -81.8 -174.84 -34.3 -248.47 -285 c -71.28 250.9 -29.92 200.5 -248.47 285 c 218.76 81.8 174.85 34.3 248.47 285 z m 570.97 3433.6 c 88.19 -310.4 37.01 -248.1 307.45 -352.6 c -270.69 -101.2 -216.36 -42.5 -307.45 -352.6 c -88.2 310.4 -37.02 248.1 -307.42 352.6 c 270.65 101.2 216.32 42.5 307.42 352.6 z M 7836.84 15240.4 c 63.51 -223.5 26.66 -178.6 221.39 -253.9 c -194.92 -72.8 -155.79 -30.6 -221.39 -253.9 c -63.52 223.5 -26.66 178.7 -221.4 253.9 c 194.92 72.9 155.8 30.6 221.4 253.9 z M 14907 13800.9 c -83.9 -295.4 -35.2 -236.1 -292.5 -335.5 c 257.5 -96.2 205.8 -40.4 292.5 -335.4 c 83.9 295.3 35.2 236 292.4 335.4 c -257.4 96.3 -205.7 40.4 -292.4 335.5 z m -637.7 3627.1 c -128.1 -451.1 -53.8 -360.6 -446.7 -512.4 c 393.3 -147 314.4 -61.7 446.7 -512.4 c 128.2 451.1 53.8 360.6 446.7 512.4 c -393.3 147 -314.3 61.7 -446.7 512.4" stroke-linecap="round"/>
</g>
		<g transform="matrix(0.1333 0 0 -0.1333 -1.4486 -109.674)" id="path26">
<path style="stroke: none; stroke-width: 1; stroke-dasharray: none; stroke-linecap: butt; stroke-dashoffset: 0; stroke-linejoin: miter; stroke-miterlimit: 4; is-custom-font: none; font-file-url: none; fill: rgb(214,27,7); fill-rule: evenodd; opacity: 1;" transform=" translate(-11990.595, -12821.1)" d="m 11990.6 18643 c 3223.2 0 5836 -2612.9 5836 -5836 c 0 -2429.7 -1484.8 -4512.3 -3596.5 -5390.5 c -25.4 2.4 -51.2 3.7 -77.2 3.7 c -214.3 0 -408.6 -85.3 -551 -223.8 c -333.9 -95.7 -680.2 -162.4 -1035.7 -197.2 c -113.9 852.8 -124.6 1798.7 -76.3 2781.5 h 811.3 l 197.9 1019.3 c 83.4 -38 227.6 -109.1 421.2 -224.4 c 323.9 -260.2 579.5 -601.3 735.7 -992.5 c 303.5 404.1 483.2 905.6 483.2 1448.9 c 0 892.9 -485.5 1672.9 -1208.1 2093.1 c -37.4 -490 -155.5 -1048 -337.8 -1470.7 c 60 320 118.5 1583.9 118.5 1583.9 v 0 v 621 c 0 1336 -692.3 2502.3 -1721.2 3126.4 c -1028.9 -624.1 -1721.2 -1790.4 -1721.2 -3126.4 v -621 v 0 c 0.1 -0.4 58.6 -1263.9 118.6 -1583.9 c -182.4 422.7 -300.5 980.7 -337.9 1470.7 c -722.58 -420.2 -1208.07 -1200.2 -1208.07 -2093.1 c 0 -543.3 179.72 -1044.8 483.23 -1448.9 c 156.14 391.2 411.72 732.3 735.74 992.5 v 0 c 193.5 115.3 337.8 186.4 421.1 224.4 L 10680 9780.7 h 781.3 c 48.2 -981.7 37.6 -1926.6 -75.9 -2778.6 c -360.7 37.2 -711.7 107.4 -1049.9 207.3 c -141 130.8 -329.7 210.8 -537.21 210.8 c -17.51 0 -34.88 -0.6 -52.1 -1.7 c -2109.04 879.4 -3591.6 2960.7 -3591.6 5388.5 c 0 3223.1 2612.87 5836 5836.01 5836 z m 4111.7 -3172.3 c -97.6 -343.4 -40.9 -274.5 -340.1 -390.1 c 299.5 -111.9 239.4 -47 340.1 -390 c 97.6 343.4 41 274.4 340.1 390 c -299.4 111.9 -239.3 47 -340.1 390.1 z m 212.5 -4248.2 c 63.5 -223.5 26.6 -178.7 221.4 -253.9 c -194.9 -72.8 -155.8 -30.6 -221.4 -253.9 c -63.5 223.5 -26.7 178.7 -221.4 253.9 c 194.9 72.9 155.8 30.6 221.4 253.9 z M 13965.2 8854.7 c -77.9 -274 -32.7 -219 -271.3 -311.2 c 238.8 -89.3 190.9 -37.5 271.3 -311.2 c 77.8 274 32.7 219 271.3 311.2 c -238.9 89.3 -190.9 37.5 -271.3 311.2 z m -6488.99 2910.6 c 63.52 -223.5 26.66 -178.7 221.39 -253.9 c -194.92 -72.9 -155.79 -30.6 -221.39 -253.9 c -63.52 223.5 -26.66 178.7 -221.4 253.9 c 194.92 72.8 155.8 30.6 221.4 253.9 z M 9587.78 9282.2 c -128.16 -451.1 -53.79 -360.6 -446.71 -512.4 c 393.29 -147 314.35 -61.7 446.71 -512.4 c 128.16 451.1 53.79 360.6 446.72 512.4 c -393.29 147 -314.35 61.7 -446.72 512.4 z m 2421.22 8989 c -56.3 -198.2 -23.6 -158.4 -196.2 -225.1 c 172.8 -64.6 138.1 -27.1 196.2 -225.1 c 56.4 198.2 23.7 158.4 196.3 225.1 c -172.8 64.6 -138.1 27.1 -196.3 225.1 z M 9131.48 13829.7 c 71.29 -250.9 29.92 -200.6 248.47 -285 c -218.75 -81.8 -174.84 -34.3 -248.47 -285 c -71.28 250.9 -29.92 200.5 -248.47 285 c 218.76 81.8 174.85 34.3 248.47 285 z m 570.97 3433.6 c 88.19 -310.4 37.01 -248.1 307.45 -352.6 c -270.69 -101.2 -216.36 -42.5 -307.45 -352.6 c -88.2 310.4 -37.02 248.1 -307.42 352.6 c 270.65 101.2 216.32 42.5 307.42 352.6 z M 7836.84 15240.4 c 63.51 -223.5 26.66 -178.6 221.39 -253.9 c -194.92 -72.8 -155.79 -30.6 -221.39 -253.9 c -63.52 223.5 -26.66 178.7 -221.4 253.9 c 194.92 72.9 155.8 30.6 221.4 253.9 z M 14907 13800.9 c -83.9 -295.4 -35.2 -236.1 -292.5 -335.5 c 257.5 -96.2 205.8 -40.4 292.5 -335.4 c 83.9 295.3 35.2 236 292.4 335.4 c -257.4 96.3 -205.7 40.4 -292.4 335.5 z m -637.7 3627.1 c -128.1 -451.1 -53.8 -360.6 -446.7 -512.4 c 393.3 -147 314.4 -61.7 446.7 -512.4 c 128.2 451.1 53.8 360.6 446.7 512.4 c -393.3 147 -314.3 61.7 -446.7 512.4" stroke-linecap="round"/>
</g>
		<g transform="matrix(0.1333 0 0 -0.1333 -1.4087 -109.3895)" id="path28">
<path style="stroke: none; stroke-width: 1; stroke-dasharray: none; stroke-linecap: butt; stroke-dashoffset: 0; stroke-linejoin: miter; stroke-miterlimit: 4; is-custom-font: none; font-file-url: none; fill: rgb(240,122,37); fill-rule: evenodd; opacity: 1;" transform=" translate(-11990.61, -12819.25)" d="m 12473.5 8133.8 c -19.6 529.7 -11.3 1082.2 16.4 1646.9 h 811.3 l 197.9 1019.3 c 83.4 -38 227.6 -109.1 421.2 -224.4 c 323.9 -260.2 579.5 -601.3 735.7 -992.5 c 303.5 404.1 483.2 905.6 483.2 1448.9 c 0 892.9 -485.5 1672.9 -1208.1 2093.1 c -37.4 -490 -155.5 -1048 -337.8 -1470.7 c 60 320 118.5 1583.9 118.5 1583.9 v 0 v 621 c 0 1336 -692.3 2502.3 -1721.2 3126.4 c -1028.9 -624.1 -1721.2 -1790.4 -1721.2 -3126.4 v -621 v 0 c 0.1 -0.4 58.6 -1263.9 118.6 -1583.9 c -182.4 422.7 -300.5 980.7 -337.9 1470.7 c -722.58 -420.2 -1208.07 -1200.2 -1208.07 -2093.1 c 0 -543.3 179.72 -1044.8 483.23 -1448.9 c 156.14 391.2 411.72 732.3 735.74 992.5 v 0 c 193.5 115.3 337.8 186.4 421.1 224.4 L 10680 9780.7 h 781.3 c 27.6 -563.5 35.9 -1114.8 16.5 -1643.4 c -613 66.5 -1190.4 251.1 -1709.4 530.3 c 51.85 26.7 131.59 50.2 266.1 102.2 c -393.29 147 -314.35 61.7 -446.72 512.4 c -81.49 -286.9 -81.13 -354.7 -171.06 -405.1 c -893.32 586.3 -1574.74 1468.9 -1904.39 2508.2 c 25.06 81.2 41.49 72.4 185.27 126.1 c -194.73 75.2 -157.87 30.4 -221.39 253.9 c -14.75 -50.2 -24.2 -86.9 -32.21 -114.6 l -84.42 365.2 c -43.63 257.2 -66.66 521.4 -66.66 791.1 c 0 752.7 177.27 1464 492.05 2094.6 c 16.08 -27.9 24.99 -74.4 51.87 -169 c 65.6 223.3 26.47 181.1 221.39 253.9 c -124.76 48.2 -154.47 47.1 -176.4 98.9 c 402.04 723.3 989.35 1329.5 1698.07 1754.1 c 66.76 -35.1 65.04 -79 122.55 -281.4 c 91.09 310.1 36.76 251.4 307.45 352.6 c -89.66 34.6 -143.93 50.9 -179.68 68.6 c 646.78 335.6 1381.38 525.4 2160.38 525.4 c 337 0 665.7 -35.8 982.6 -103.3 l 144.6 -33.2 c 337.1 -83 659.7 -202.6 963.7 -354 c -51.9 -25.2 -130.4 -49 -258.9 -98.6 c 393.3 -147 314.4 -61.7 446.7 -512.4 c 83.4 293.4 81.1 357.7 177.4 408.5 c 646 -396.9 1188.5 -945.9 1578 -1596.9 c -33.5 -62 -86.3 -66.1 -262.5 -134.2 c 299.5 -111.9 239.4 -47 340.1 -390 c 38.3 134.7 52.8 205.9 74.4 249.8 c 327.1 -640.2 511.6 -1365.2 511.6 -2133.4 c 0 -503.8 -79.6 -988.9 -226.4 -1443.8 l -24.9 -75.5 c -24.7 -72.4 -51.3 -144 -79.4 -214.8 c -11.3 29.2 -21.4 74.1 -42.8 149.6 c -65.6 -223.3 -26.5 -181 -221.4 -253.9 c 126.1 -48.7 155.1 -47.1 177.1 -100.6 c -446.6 -984 -1222.6 -1786.8 -2187.2 -2267.6 c -68.2 32 -63 66.7 -118.1 254.3 c -77.9 -274 -32.7 -219 -271.3 -311.2 c 71.5 -26.7 117.3 -40.8 148.6 -54.8 c -18.7 -8 -37.5 -15.9 -56.3 -23.7 l -54.6 -22.3 c -395.7 -158 -817.9 -263.9 -1258.1 -308.9 z m -3342.02 5695.9 c 71.29 -250.9 29.92 -200.6 248.47 -285 c -218.75 -81.8 -174.84 -34.3 -248.47 -285 c -71.28 250.9 -29.92 200.5 -248.47 285 c 218.76 81.8 174.85 34.3 248.47 285 z m 5775.52 -28.8 c -83.9 -295.4 -35.2 -236.1 -292.5 -335.5 c 257.5 -96.2 205.8 -40.4 292.5 -335.4 c 83.9 295.3 35.2 236 292.4 335.4 c -257.4 96.3 -205.7 40.4 -292.4 335.5" stroke-linecap="round"/>
</g>
		<g transform="matrix(0.1333 0 0 -0.1333 -1.3694 -227.1787)" id="path30">
<path style="stroke: none; stroke-width: 1; stroke-dasharray: none; stroke-linecap: butt; stroke-dashoffset: 0; stroke-linejoin: miter; stroke-miterlimit: 4; is-custom-font: none; font-file-url: none; fill: rgb(254,162,41); fill-rule: evenodd; opacity: 1;" transform=" translate(-11990.62, -13703.2)" d="m 12835.3 16265.2 c 545 -638.5 876.5 -1481.6 876.5 -2405.9 v -621 c 0 0 -58.5 -1263.9 -118.5 -1583.9 c 182.3 422.7 300.4 980.7 337.8 1470.8 c 693 -403 1167.8 -1137 1205.6 -1984 c 263.7 497 413.3 1063.9 413.3 1665.8 c 0 1013.2 -423.4 1927.7 -1103 2575.8 l -78.1 72.2 c -49.6 44.5 -100.4 87.6 -152.3 129.3 l -75.7 59.1 c -382.1 290.1 -824.7 504.8 -1305.6 621.8 z M 9131.48 13829.7 c 71.29 -250.9 29.92 -200.6 248.47 -285 c -218.75 -81.8 -174.84 -34.3 -248.47 -285 c -71.28 250.9 -29.92 200.5 -248.47 285 c 218.76 81.8 174.85 34.3 248.47 285 z m 5775.52 -28.8 c -83.9 -295.4 -35.2 -236.1 -292.5 -335.5 c 257.5 -96.2 205.8 -40.4 292.5 -335.4 c 83.9 295.3 35.2 236 292.4 335.4 c -257.4 96.3 -205.7 40.4 -292.4 335.5 z m -3761.1 2464.3 c -545 -638.5 -876.5 -1481.6 -876.5 -2405.9 v -621 v 0 c 0.1 -0.4 58.6 -1263.9 118.6 -1583.9 c -182.4 422.7 -300.5 980.8 -337.9 1470.8 c -692.96 -403 -1167.78 -1137 -1205.54 -1984 c -263.72 497 -413.32 1063.9 -413.32 1665.8 c 0 1013.2 423.37 1927.7 1102.94 2575.8 l 78.18 72.2 c 49.51 44.5 100.31 87.6 152.27 129.3 l 75.67 59.1 c 382.2 290.1 824.7 504.8 1305.6 621.8" stroke-linecap="round"/>
</g>
		<g transform="matrix(0.1333 0 0 -0.1333 -1.3301 -148.6954)" id="path32">
<path style="stroke: none; stroke-width: 1; stroke-dasharray: none; stroke-linecap: butt; stroke-dashoffset: 0; stroke-linejoin: miter; stroke-miterlimit: 4; is-custom-font: none; font-file-url: none; fill: rgb(255,226,6); fill-rule: evenodd; opacity: 1;" transform=" translate(-11990.63, -13114.85)" d="m 13644 14575.3 c 472.3 -441.8 767.7 -1070.5 767.7 -1768.3 c 0 -15.8 -0.3 -31.5 -0.6 -47.3 c -143.8 140.6 -304.9 263.6 -480 365.5 c -37.4 -490.1 -155.5 -1048.1 -337.8 -1470.8 c 60 320 118.5 1583.9 118.5 1583.9 v 0 v 621 c 0 245.1 -23.3 484.6 -67.8 716 z m -3256 -2920.9 c -60 320 -118.5 1583.5 -118.6 1583.9 v 0 v 621 c 0 245.1 23.4 484.6 67.8 716 c -472.34 -441.8 -767.64 -1070.5 -767.64 -1768.3 c 0 -15.8 0.29 -31.5 0.59 -47.3 c 143.72 140.6 304.87 263.6 479.95 365.5 c 37.4 -490.1 155.5 -1048.1 337.9 -1470.8" stroke-linecap="round"/>
</g>
</g>
</g>
</svg>