<svg xmlns="http://www.w3.org/2000/svg" xmlns:xlink="http://www.w3.org/1999/xlink" version="1.1" width="50" height="50" viewBox="0 0 50 50" xml:space="preserve">
<desc>Created with Fabric.js 3.5.0</desc>
<defs>
</defs>
<rect x="0" y="0" width="100%" height="100%" fill="#ffffff"/>
<g transform="matrix(0.0179 0 0 0.0179 25 21.5813)" id="278080">
<g style="" vector-effect="non-scaling-stroke">
		<g transform="matrix(0.1333 0 0 -0.1333 -0.4 -0.3999)" id="path14">
<path style="stroke: none; stroke-width: 1; stroke-dasharray: none; stroke-linecap: butt; stroke-dashoffset: 0; stroke-linejoin: miter; stroke-miterlimit: 4; is-custom-font: none; font-file-url: none; fill: rgb(0,0,0); fill-rule: evenodd; opacity: 1;" transform=" translate(-12000, -12000)" d="M 0 24000 H 24000 V 0 H 0 v 24000" stroke-linecap="round"/>
</g>
		<g transform="matrix(0.1333 0 0 -0.1333 292.308 -227.1787)" id="path16">
<path style="stroke: none; stroke-width: 1; stroke-dasharray: none; stroke-linecap: butt; stroke-dashoffset: 0; stroke-linejoin: miter; stroke-miterlimit: 4; is-custom-font: none; font-file-url: none; fill: rgb(254,162,41); fill-rule: evenodd; opacity: 1;" transform=" translate(-14192.65, -13703.2)" d="m 15136.7 11141.2 c -41.7 933.7 -614.4 1730 -1424.9 2097.1 v 621 c 0 924.3 -331.5 1767.4 -876.5 2405.9 c 1558 -379.2 2714.7 -1783.5 2714.7 -3458.2 c 0 -601.9 -149.6 -1168.8 -413.3 -1665.8" stroke-linecap="round"/>
</g>
		<g transform="matrix(0.1333 0 0 -0.1333 3.7738 877.3468)" id="path18">
<path style="stroke: none; stroke-width: 1; stroke-dasharray: none; stroke-linecap: butt; stroke-dashoffset: 0; stroke-linejoin: miter; stroke-miterlimit: 4; is-custom-font: none; font-file-url: none; fill: rgb(145,0,0); fill-rule: evenodd; opacity: 1;" transform=" translate(-12029.1338, -5419.5976)" d="m 10396.7 6124.7 c 354.9 -130 548.6 -505.5 459.4 -863.9 c -59.7 298.2 -251.9 550 -536.2 654.2 c -284.3 104.2 -593.76 36.1 -831.98 -153 c 163.56 331.2 553.98 492.7 908.78 362.7 z m -1320.01 467.4 c -271.57 -99.5 -419.82 -386.8 -351.63 -661.2 c 45.7 228.2 192.81 421 410.44 500.7 c 217.63 79.7 454.45 27.6 636.76 -117.1 c -125.19 253.5 -423.99 377.1 -695.57 277.6 z m 3352.01 -844 c -177.8 -15.2 -312.7 -162.2 -316.7 -336.6 c 64.3 128.4 183.2 219.3 325.6 231.4 c 142.5 12.2 275 -57.2 360.1 -173 c -33.4 171.2 -191.2 293.3 -369 278.2 z m -1164 -492.5 c -356.9 6.6 -655.7 -257.9 -699.6 -604.1 c 154.4 242.3 409.7 398.5 695.7 393.1 c 285.9 -5.3 535.2 -170.9 680.4 -418.7 c -31 347.5 -319.7 623 -676.5 629.7 z m 271.6 902.7 c -289 -105.9 -446.7 -411.6 -374.2 -703.6 c 48.7 242.9 205.2 447.9 436.7 532.8 c 231.6 84.8 483.5 29.4 677.5 -124.6 c -133.2 269.7 -451.1 401.2 -740 295.4 z m 1521 -1081.6 c 354.8 -130 548.5 -505.5 459.4 -864 c -59.7 298.2 -252 550 -536.3 654.2 c -284.3 104.2 -593.7 36.1 -832 -153 c 163.6 331.2 554 492.7 908.9 362.8 z m 1924.3 1515.4 c 271.6 -99.5 419.8 -386.8 351.6 -661.2 c -45.7 228.2 -192.8 421 -410.4 500.7 c -217.6 79.7 -454.5 27.6 -636.8 -117.1 c 125.2 253.5 424 377.1 695.6 277.6 z M 14632 5721.2 c 281.2 -8.6 506.2 -228.5 527.4 -502.8 c -112.2 196.7 -307.1 329.6 -532.5 336.5 c -225.4 6.9 -428.1 -113.8 -552.1 -303.3 c 37.9 272.4 275.9 478.1 557.2 469.6 z m -970.5 403.5 c -354.8 -130 -548.5 -505.5 -459.4 -863.9 c 59.7 298.2 251.9 550 536.3 654.2 c 284.3 104.2 593.7 36.1 832 -153 c -163.6 331.2 -554 492.7 -908.9 362.7 z M 9426.32 5721.2 c -281.26 -8.6 -506.24 -228.5 -527.4 -502.8 c 112.16 196.7 307.09 329.6 532.47 336.5 c 225.38 6.9 428.06 -113.8 552.05 -303.3 c -37.88 272.4 -275.88 478.2 -557.12 469.6" stroke-linecap="round"/>
</g>
		<g transform="matrix(0.1333 0 0 -0.1333 187.6287 261.3147)" id="path20">
<path style="stroke: none; stroke-width: 1; stroke-dasharray: none; stroke-linecap: butt; stroke-dashoffset: 0; stroke-linejoin: miter; stroke-miterlimit: 4; is-custom-font: none; font-file-url: none; fill: rgb(254,162,41); fill-rule: evenodd; opacity: 1;" transform=" translate(-13407.45, -10039.95)" d="m 12470.5 9279.9 c 4.6 165.7 11.1 332.7 19.4 500.8 h 811.3 l 197.9 1019.3 c 83.4 -38 227.6 -109.1 421.2 -224.4 c 159.1 -127.8 301.7 -275.1 424.1 -438.3 c -514.2 -453.7 -1160.5 -761.2 -1873.9 -857.4" stroke-linecap="round"/>
</g>
		<g transform="matrix(0.1333 0 0 -0.1333 -192.2121 261.0281)" id="path22">
<path style="stroke: none; stroke-width: 1; stroke-dasharray: none; stroke-linecap: butt; stroke-dashoffset: 0; stroke-linejoin: miter; stroke-miterlimit: 4; is-custom-font: none; font-file-url: none; fill: rgb(254,162,41); fill-rule: evenodd; opacity: 1;" transform=" translate(-10558.64, -10042.1)" d="m 9636.78 10137.3 c 122.44 163.2 265.05 310.5 424.22 438.3 v 0 c 193.5 115.3 337.8 186.4 421.1 224.4 L 10680 9780.7 h 781.3 c 8.2 -166.6 14.6 -332.3 19.2 -496.5 c -701.4 100.7 -1336.8 405.7 -1843.72 853.1" stroke-linecap="round"/>
</g>
		<g transform="matrix(0.1333 0 0 -0.1333 -1.4815 -130.3402)" id="path24">
<path style="stroke: none; stroke-width: 1; stroke-dasharray: none; stroke-linecap: butt; stroke-dashoffset: 0; stroke-linejoin: miter; stroke-miterlimit: 4; is-custom-font: none; font-file-url: none; fill: rgb(145,0,0); fill-rule: evenodd; opacity: 1;" transform=" translate(-11990.62, -12975.85)" d="m 15684.1 6178.4 c 1047.7 2323.4 3230 2996 3230 6679.4 c 0 3823.8 -3099.7 6923.5 -6923.5 6923.5 c -3823.76 0 -6923.46 -3099.7 -6923.46 -6923.5 c 0 -1614.1 552.53 -3099.5 1478.55 -4276.8 v -1.9 l 4.69 -4 c 784.83 -995.4 1329.78 -1415.7 1722.32 -2313.4 c 38.63 271.7 272.04 480.5 554.26 480.5 c 64.86 0 127.13 -11 185.07 -31.3 c 40.69 398.4 377.17 709.3 786.26 709.3 c 436.51 0 790.41 -354 790.41 -790.6 c 0 -171.3 -54.4 -329.8 -146.9 -459.2 v 0 c 0 0 259.1 210.1 259.3 653.2 c 302.4 -7.8 545.2 -255.5 545.2 -559.8 c 0 -15.2 -0.7 -30.2 -1.9 -45.1 c 241.8 1037.8 280.4 2267.9 216.9 3562 H 10680 l -197.9 1019.3 c -83.3 -38 -227.6 -109.1 -421.2 -224.4 c -323.92 -260.2 -579.51 -601.3 -735.64 -992.5 c -303.5 404.1 -483.24 905.6 -483.24 1448.9 c 0 892.9 485.5 1672.9 1208.08 2093.1 c 37.4 -490 155.5 -1048 337.9 -1470.7 c -60 320 -118.6 1583.9 -118.6 1583.9 v 621 c 0 1336 692.3 2502.3 1721.2 3126.4 c 1028.9 -624.1 1721.2 -1790.4 1721.2 -3126.4 v -621 c 0 0 -58.5 -1263.9 -118.5 -1583.9 c 182.3 422.7 300.4 980.7 337.8 1470.7 c 722.6 -420.2 1208.1 -1200.2 1208.1 -2093.1 c 0 -543.3 -179.7 -1044.8 -483.2 -1448.9 c -156.2 391.2 -411.8 732.3 -735.7 992.5 c -193.6 115.3 -337.8 186.4 -421.2 224.4 l -197.9 -1019.3 h -811.3 c -63.5 -1294.1 -24.9 -2524.2 216.8 -3562 c -1.2 14.9 -1.8 29.9 -1.8 45.1 c 0 304.3 242.7 552 545.1 559.8 c 0.2 -443.1 259.3 -653.2 259.3 -653.2 v 0 c -92.4 129.4 -146.8 287.9 -146.8 459.2 c 0 436.6 353.8 790.6 790.4 790.6 c 409.1 0 745.5 -310.9 786.2 -709.3 c 58 20.3 120.2 31.3 185.1 31.3 c 309.2 0 559.9 -250.7 559.9 -560 z m 418.2 9292.3 c -97.6 -343.4 -40.9 -274.5 -340.1 -390.1 c 299.5 -111.9 239.4 -47 340.1 -390 c 97.6 343.4 41 274.4 340.1 390 c -299.4 111.9 -239.3 47 -340.1 390.1 z m 212.5 -4248.2 c 63.5 -223.5 26.6 -178.7 221.4 -253.9 c -194.9 -72.8 -155.8 -30.6 -221.4 -253.9 c -63.5 223.5 -26.7 178.7 -221.4 253.9 c 194.9 72.9 155.8 30.6 221.4 253.9 z M 13965.2 8854.7 c -77.9 -274 -32.7 -219 -271.3 -311.2 c 238.8 -89.3 190.9 -37.5 271.3 -311.2 c 77.8 274 32.7 219 271.3 311.2 c -238.9 89.3 -190.9 37.5 -271.3 311.2 z m -6488.99 2910.6 c 63.52 -223.5 26.66 -178.7 221.39 -253.9 c -194.92 -72.9 -155.79 -30.6 -221.39 -253.9 c -63.52 223.5 -26.66 178.7 -221.4 253.9 c 194.92 72.8 155.8 30.6 221.4 253.9 z M 9587.78 9282.2 c -128.16 -451.1 -53.79 -360.6 -446.71 -512.4 c 393.29 -147 314.35 -61.7 446.71 -512.4 c 128.16 451.1 53.79 360.6 446.72 512.4 c -393.29 147 -314.35 61.7 -446.72 512.4 z m 2421.22 8989 c -56.3 -198.2 -23.6 -158.4 -196.2 -225.1 c 172.8 -64.6 138.1 -27.1 196.2 -225.1 c 56.4 198.2 23.7 158.4 196.3 225.1 c -172.8 64.6 -138.1 27.1 -196.3 225.1 z M 9131.48 13829.7 c 71.29 -250.9 29.92 -200.6 248.47 -285 c -218.75 -81.8 -174.84 -34.3 -248.47 -285 c -71.28 250.9 -29.92 200.5 -248.47 285 c 218.76 81.8 174.85 34.3 248.47 285 z m 570.97 3433.6 c 88.19 -310.4 37.01 -248.1 307.45 -352.6 c -270.69 -101.2 -216.36 -42.5 -307.45 -352.6 c -88.2 310.4 -37.02 248.1 -307.42 352.6 c 270.65 101.2 216.32 42.5 307.42 352.6 z M 7836.84 15240.4 c 63.51 -223.5 26.66 -178.6 221.39 -253.9 c -194.92 -72.8 -155.79 -30.6 -221.39 -253.9 c -63.52 223.5 -26.66 178.7 -221.4 253.9 c 194.92 72.9 155.8 30.6 221.4 253.9 z M 14907 13800.9 c -83.9 -295.4 -35.2 -236.1 -292.5 -335.5 c 257.5 -96.2 205.8 -40.4 292.5 -335.4 c 83.9 295.3 35.2 236 292.4 335.4 c -257.4 96.3 -205.7 40.4 -292.4 335.5 z m -637.7 3627.1 c -128.1 -451.1 -53.8 -360.6 -446.7 -512.4 c 393.3 -147 314.4 -61.7 446.7 -512.4 c 128.2 451.1 53.8 360.6 446.7 512.4 c -393.3 147 -314.3 61.7 -446.7 512.4" stroke-linecap="round"/>
</g>
		<g transform="matrix(0.1333 0 0 -0.1333 -1.4486 -109.674)" id="path26">
<path style="stroke: none; stroke-width: 1; stroke-dasharray: none; stroke-linecap: butt; stroke-dashoffset: 0; stroke-linejoin: miter; stroke-miterlimit: 4; is-custom-font: none; font-file-url: none; fill: rgb(214,27,7); fill-rule: evenodd; opacity: 1;" transform=" translate(-11990.595, -12821.1)" d="m 11990.6 18643 c 3223.2 0 5836 -2612.9 5836 -5836 c 0 -2429.7 -1484.8 -4512.3 -3596.5 -5390.5 c -25.4 2.4 -51.2 3.7 -77.2 3.7 c -214.3 0 -408.6 -85.3 -551 -223.8 c -333.9 -95.7 -680.2 -162.4 -1035.7 -197.2 c -113.9 852.8 -124.6 1798.7 -76.3 2781.5 h 811.3 l 197.9 1019.3 c 83.4 -38 227.6 -109.1 421.2 -224.4 c 323.9 -260.2 579.5 -601.3 735.7 -992.5 c 303.5 404.1 483.2 905.6 483.2 1448.9 c 0 892.9 -485.5 1672.9 -1208.1 2093.1 c -37.4 -490 -155.5 -1048 -337.8 -1470.7 c 60 320 118.5 1583.9 118.5 1583.9 v 0 v 621 c 0 1336 -692.3 2502.3 -1721.2 3126.4 c -1028.9 -624.1 -1721.2 -1790.4 -1721.2 -3126.4 v -621 v 0 c 0.1 -0.4 58.6 -1263.9 118.6 -1583.9 c -182.4 422.7 -300.5 980.7 -337.9 1470.7 c -722.58 -420.2 -1208.07 -1200.2 -1208.07 -2093.1 c 0 -543.3 179.72 -1044.8 483.23 -1448.9 c 156.14 391.2 411.72 732.3 735.74 992.5 v 0 c 193.5 115.3 337.8 186.4 421.1 224.4 L 10680 9780.7 h 781.3 c 48.2 -981.7 37.6 -1926.6 -75.9 -2778.6 c -360.7 37.2 -711.7 107.4 -1049.9 207.3 c -141 130.8 -329.7 210.8 -537.21 210.8 c -17.51 0 -34.88 -0.6 -52.1 -1.7 c -2109.04 879.4 -3591.6 2960.7 -3591.6 5388.5 c 0 3223.1 2612.87 5836 5836.01 5836 z m 4111.7 -3172.3 c -97.6 -343.4 -40.9 -274.5 -340.1 -390.1 c 299.5 -111.9 239.4 -47 340.1 -390 c 97.6 343.4 41 274.4 340.1 390 c -299.4 111.9 -239.3 47 -340.1 390.1 z m 212.5 -4248.2 c 63.5 -223.5 26.6 -178.7 221.4 -253.9 c -194.9 -72.8 -155.8 -30.6 -221.4 -253.9 c -63.5 223.5 -26.7 178.7 -221.4 253.9 c 194.9 72.9 155.8 30.6 221.4 253.9 z M 13965.2 8854.7 c -77.9 -274 -32.7 -219 -271.3 -311.2 c 238.8 -89.3 190.9 -37.5 271.3 -311.2 c 77.8 274 32.7 219 271.3 311.2 c -238.9 89.3 -190.9 37.5 -271.3 311.2 z m -6488.99 2910.6 c 63.52 -223.5 26.66 -178.7 221.39 -253.9 c -194.92 -72.9 -155.79 -30.6 -221.39 -253.9 c -63.52 223.5 -26.66 178.7 -221.4 253.9 c 194.92 72.8 155.8 30.6 221.4 253.9 z M 9587.78 9282.2 c -128.16 -451.1 -53.79 -360.6 -446.71 -512.4 c 393.29 -147 314.35 -61.7 446.71 -512.4 c 128.16 451.1 53.79 360.6 446.72 512.4 c -393.29 147 -314.35 61.7 -446.72 512.4 z m 2421.22 8989 c -56.3 -198.2 -23.6 -158.4 -196.2 -225.1 c 172.8 -64.6 138.1 -27.1 196.2 -225.1 c 56.4 198.2 23.7 158.4 196.3 225.1 c -172.8 64.6 -138.1 27.1 -196.3 225.1 z M 9131.48 13829.7 c 71.29 -250.9 29.92 -200.6 248.47 -285 c -218.75 -81.8 -174.84 -34.3 -248.47 -285 c -71.28 250.9 -29.92 200.5 -248.47 285 c 218.76 81.8 174.85 34.3 248.47 285 z m 570.97 3433.6 c 88.19 -310.4 37.01 -248.1 307.45 -352.6 c -270.69 -101.2 -216.36 -42.5 -307.45 -352.6 c -88.2 310.4 -37.02 248.1 -307.42 352.6 c 270.65 101.2 216.32 42.5 307.42 352.6 z M 7836.84 15240.4 c 63.51 -223.5 26.66 -178.6 221.39 -253.9 c -194.92 -72.8 -155.79 -30.6 -221.39 -253.9 c -63.52 223.5 -26.66 178.7 -221.4 253.9 c 194.92 72.9 155.8 30.6 221.4 253.9 z M 14907 13800.9 c -83.9 -295.4 -35.2 -236.1 -292.5 -335.5 c 257.5 -96.2 205.8 -40.4 292.5 -335.4 c 83.9 295.3 35.2 236 292.4 335.4 c -257.4 96.3 -205.7 40.4 -292.4 335.5 z m -637.7 3627.1 c -128.1 -451.1 -53.8 -360.6 -446.7 -512.4 c 393.3 -147 314.4 -61.7 446.7 -512.4 c 128.2 451.1 53.8 360.6 446.7 512.4 c -393.3 147 -314.3 61.7 -446.7 512.4" stroke-linecap="round"/>
</g>
		<g transform="matrix(0.1333 0 0 -0.1333 -1.4087 -109.3895)" id="path28">
<path style="stroke: none; stroke-width: 1; stroke-dasharray: none; stroke-linecap: butt; stroke-dashoffset: 0; stroke-linejoin: miter; stroke-miterlimit: 4; is-custom-font: none; font-file-url: none; fill: rgb(240,122,37); fill-rule: evenodd; opacity: 1;" transform=" translate(-11990.61, -12819.25)" d="m 12473.5 8133.8 c -19.6 529.7 -11.3 1082.2 16.4 1646.9 h 811.3 l 197.9 1019.3 c 83.4 -38 227.6 -109.1 421.2 -224.4 c 323.9 -260.2 579.5 -601.3 735.7 -992.5 c 303.5 404.1 483.2 905.6 483.2 1448.9 c 0 892.9 -485.5 1672.9 -1208.1 2093.1 c -37.4 -490 -155.5 -1048 -337.8 -1470.7 c 60 320 118.5 1583.9 118.5 1583.9 v 0 v 621 c 0 1336 -692.3 2502.3 -1721.2 3126.4 c -1028.9 -624.1 -1721.2 -1790.4 -1721.2 -3126.4 v -621 v 0 c 0.1 -0.4 58.6 -1263.9 118.6 -1583.9 c -182.4 422.7 -300.5 980.7 -337.9 1470.7 c -722.58 -420.2 -1208.07 -1200.2 -1208.07 -2093.1 c 0 -543.3 179.72 -1044.8 483.23 -1448.9 c 156.14 391.2 411.72 732.3 735.74 992.5 v 0 c 193.5 115.3 337.8 186.4 421.1 224.4 L 10680 9780.7 h 781.3 c 27.6 -563.5 35.9 -1114.8 16.5 -1643.4 c -613 66.5 -1190.4 251.1 -1709.4 530.3 c 51.85 26.7 131.59 50.2 266.1 102.2 c -393.29 147 -314.35 61.7 -446.72 512.4 c -81.49 -286.9 -81.13 -354.7 -171.06 -405.1 c -893.32 586.3 -1574.74 1468.9 -1904.39 2508.2 c 25.06 81.2 41.49 72.4 185.27 126.1 c -194.73 75.2 -157.87 30.4 -221.39 253.9 c -14.75 -50.2 -24.2 -86.9 -32.21 -114.6 l -84.42 365.2 c -43.63 257.2 -66.66 521.4 -66.66 791.1 c 0 752.7 177.27 1464 492.05 2094.6 c 16.08 -27.9 24.99 -74.4 51.87 -169 c 65.6 223.3 26.47 181.1 221.39 253.9 c -124.76 48.2 -154.47 47.1 -176.4 98.9 c 402.04 723.3 989.35 1329.5 1698.07 1754.1 c 66.76 -35.1 65.04 -79 122.55 -281.4 c 91.09 310.1 36.76 251.4 307.45 352.6 c -89.66 34.6 -143.93 50.9 -179.68 68.6 c 646.78 335.6 1381.38 525.4 2160.38 525.4 c 337 0 665.7 -35.8 982.6 -103.3 l 144.6 -33.2 c 337.1 -83 659.7 -202.6 963.7 -354 c -51.9 -25.2 -130.4 -49 -258.9 -98.6 c 393.3 -147 314.4 -61.7 446.7 -512.4 c 83.4 293.4 81.1 357.7 177.4 408.5 c 646 -396.9 1188.5 -945.9 1578 -1596.9 c -33.5 -62 -86.3 -66.1 -262.5 -134.2 c 299.5 -111.9 239.4 -47 340.1 -390 c 38.3 134.7 52.8 205.9 74.4 249.8 c 327.1 -640.2 511.6 -1365.2 511.6 -2133.4 c 0 -503.8 -79.6 -988.9 -226.4 -1443.8 l -24.9 -75.5 c -24.7 -72.4 -51.3 -144 -79.4 -214.8 c -11.3 29.2 -21.4 74.1 -42.8 149.6 c -65.6 -223.3 -26.5 -181 -221.4 -253.9 c 126.1 -48.7 155.1 -47.1 177.1 -100.6 c -446.6 -984 -1222.6 -1786.8 -2187.2 -2267.6 c -68.2 32 -63 66.7 -118.1 254.3 c -77.9 -274 -32.7 -219 -271.3 -311.2 c 71.5 -26.7 117.3 -40.8 148.6 -54.8 c -18.7 -8 -37.5 -15.9 -56.3 -23.7 l -54.6 -22.3 c -395.7 -158 -817.9 -263.9 -1258.1 -308.9 z m -3342.02 5695.9 c 71.29 -250.9 29.92 -200.6 248.47 -285 c -218.75 -81.8 -174.84 -34.3 -248.47 -285 c -71.28 250.9 -29.92 200.5 -248.47 285 c 218.76 81.8 174.85 34.3 248.47 285 z m 5775.52 -28.8 c -83.9 -295.4 -35.2 -236.1 -292.5 -335.5 c 257.5 -96.2 205.8 -40.4 292.5 -335.4 c 83.9 295.3 35.2 236 292.4 335.4 c -257.4 96.3 -205.7 40.4 -292.4 335.5" stroke-linecap="round"/>
</g>
		<g transform="matrix(0.1333 0 0 -0.1333 -1.3694 -227.1787)" id="path30">
<path style="stroke: none; stroke-width: 1; stroke-dasharray: none; stroke-linecap: butt; stroke-dashoffset: 0; stroke-linejoin: miter; stroke-miterlimit: 4; is-custom-font: none; font-file-url: none; fill: rgb(254,162,41); fill-rule: evenodd; opacity: 1;" transform=" translate(-11990.62, -13703.2)" d="m 12835.3 16265.2 c 545 -638.5 876.5 -1481.6 876.5 -2405.9 v -621 c 0 0 -58.5 -1263.9 -118.5 -1583.9 c 182.3 422.7 300.4 980.7 337.8 1470.8 c 693 -403 1167.8 -1137 1205.6 -1984 c 263.7 497 413.3 1063.9 413.3 1665.8 c 0 1013.2 -423.4 1927.7 -1103 2575.8 l -78.1 72.2 c -49.6 44.5 -100.4 87.6 -152.3 129.3 l -75.7 59.1 c -382.1 290.1 -824.7 504.8 -1305.6 621.8 z M 9131.48 13829.7 c 71.29 -250.9 29.92 -200.6 248.47 -285 c -218.75 -81.8 -174.84 -34.3 -248.47 -285 c -71.28 250.9 -29.92 200.5 -248.47 285 c 218.76 81.8 174.85 34.3 248.47 285 z m 5775.52 -28.8 c -83.9 -295.4 -35.2 -236.1 -292.5 -335.5 c 257.5 -96.2 205.8 -40.4 292.5 -335.4 c 83.9 295.3 35.2 236 292.4 335.4 c -257.4 96.3 -205.7 40.4 -292.4 335.5 z m -3761.1 2464.3 c -545 -638.5 -876.5 -1481.6 -876.5 -2405.9 v -621 v 0 c 0.1 -0.4 58.6 -1263.9 118.6 -1583.9 c -182.4 422.7 -300.5 980.8 -337.9 1470.8 c -692.96 -403 -1167.78 -1137 -1205.54 -1984 c -263.72 497 -413.32 1063.9 -413.32 1665.8 c 0 1013.2 423.37 1927.7 1102.94 2575.8 l 78.18 72.2 c 49.51 44.5 100.31 87.6 152.27 129.3 l 75.67 59.1 c 382.2 290.1 824.7 504.8 1305.6 621.8" stroke-linecap="round"/>
</g>
		<g transform="matrix(0.1333 0 0 -0.1333 -1.3301 -148.6954)" id="path32">
<path style="stroke: none; stroke-width: 1; stroke-dasharray: none; stroke-linecap: butt; stroke-dashoffset: 0; stroke-linejoin: miter; stroke-miterlimit: 4; is-custom-font: none; font-file-url: none; fill: rgb(255,226,6); fill-rule: evenodd; opacity: 1;" transform=" translate(-11990.63, -13114.85)" d="m 13644 14575.3 c 472.3 -441.8 767.7 -1070.5 767.7 -1768.3 c 0 -15.8 -0.3 -31.5 -0.6 -47.3 c -143.8 140.6 -304.9 263.6 -480 365.5 c -37.4 -490.1 -155.5 -1048.1 -337.8 -1470.8 c 60 320 118.5 1583.9 118.5 1583.9 v 0 v 621 c 0 245.1 -23.3 484.6 -67.8 716 z m -3256 -2920.9 c -60 320 -118.5 1583.5 -118.6 1583.9 v 0 v 621 c 0 245.1 23.4 484.6 67.8 716 c -472.34 -441.8 -767.64 -1070.5 -767.64 -1768.3 c 0 -15.8 0.29 -31.5 0.59 -47.3 c 143.72 140.6 304.87 263.6 479.95 365.5 c 37.4 -490.1 155.5 -1048.1 337.9 -1470.8" stroke-linecap="round"/>
</g>
</g>
</g>
<g transform="matrix(0.05 0 0 0.05 15.2515 42.8384)" style="" id="331283">
		
<path xml:space="preserve" font-family="Quicksand" font-size="139" font-weight="bold" style="stroke: none; stroke-width: 0; stroke-dasharray: none; stroke-linecap: butt; stroke-dashoffset: 0; stroke-linejoin: miter; stroke-miterlimit: 4; is-custom-font: none; font-file-url: none; fill: rgb(57,81,220); fill-rule: nonzero; opacity: 1; white-space: pre;" d="M-283.84-53.63L-250.62-53.63Q-240.61-53.63-232.83-49.88Q-225.04-46.13-219.69-39.39Q-214.34-32.65-211.63-23.82Q-208.92-14.99-208.92-4.98L-208.92-4.98Q-208.92 8.50-213.78 19.55Q-218.65 30.60-227.89 37.13Q-237.13 43.67-250.62 43.67L-250.62 43.67L-283.84 43.67Q-287.45 43.67-289.88 41.23Q-292.32 38.80-292.32 35.19L-292.32 35.19L-292.32-45.16Q-292.32-48.77-289.88-51.20Q-287.45-53.63-283.84-53.63L-283.84-53.63ZM-275.78 27.68L-252.01 27.68Q-243.25 27.68-237.69 23.16Q-232.13 18.65-229.56 11.21Q-226.99 3.77-226.99-4.98L-226.99-4.98Q-226.99-11.52-228.45-17.43Q-229.91-23.33-232.96-27.85Q-236.02-32.37-240.75-35.01Q-245.47-37.65-252.01-37.65L-252.01-37.65L-276.33-37.65L-274.94-38.90L-274.94 29.21L-275.78 27.68ZM-184.18 43.67L-184.18 43.67Q-188.07 43.67-190.50 41.23Q-192.93 38.80-192.93 35.19L-192.93 35.19L-192.93-45.16Q-192.93-48.77-190.50-51.20Q-188.07-53.63-184.45-53.63L-184.45-53.63L-139.28-53.63Q-135.66-53.63-133.23-51.34Q-130.80-49.05-130.80-45.43L-130.80-45.43Q-130.80-42.38-133.23-40.01Q-135.66-37.65-139.28-37.65L-139.28-37.65L-176.81-37.65L-175.56-39.32L-175.56-11.38L-176.53-13.19L-145.53-13.19Q-141.92-13.19-139.49-10.89Q-137.05-8.60-137.05-4.98L-137.05-4.98Q-137.05-1.93-139.49 0.44Q-141.92 2.80-145.53 2.80L-145.53 2.80L-176.81 2.80L-175.56 1.55L-175.56 35.19Q-175.56 38.80-178.13 41.23Q-180.70 43.67-184.18 43.67ZM-48.93-53.77L-48.93-53.77Q-45.73-53.77-43.44-51.27Q-41.14-48.77-41.14-45.99L-41.14-45.99Q-41.14-43.35-42.95-40.99L-42.95-40.99L-70.89-4.15L-80.34-17.08L-55.74-49.74Q-52.82-53.77-48.93-53.77ZM-110.92-54.05L-110.92-54.05Q-106.89-54.05-104.11-50.44L-104.11-50.44L-42.95 30.88Q-41.28 33.10-41.28 36.02L-41.28 36.02Q-41.28 39.91-44.06 42.14Q-46.84 44.36-49.62 44.36L-49.62 44.36Q-53.65 44.36-56.43 40.75L-56.43 40.75L-117.59-40.57Q-119.40-42.79-119.40-45.57L-119.40-45.57Q-119.40-49.19-116.69-51.62Q-113.98-54.05-110.92-54.05ZM-112.17 44.36L-112.17 44.36Q-115.23 44.36-117.46 42.07Q-119.68 39.77-119.68 36.99L-119.68 36.99Q-119.68 33.94-117.59 31.29L-117.59 31.29L-89.38-6.93L-80.20 6.55L-105.22 40.47Q-108.00 44.36-112.17 44.36ZM-14.46 43.67L-14.46 43.67Q-18.35 43.67-21.41 41.23Q-24.46 38.80-24.46 35.19L-24.46 35.19L-24.46-45.16Q-24.46-48.77-22.03-51.20Q-19.60-53.63-15.99-53.63L-15.99-53.63L24.05-53.63Q31.27-53.63 37.60-49.81Q43.92-45.99 47.82-39.25Q51.71-32.51 51.71-23.75L51.71-23.75Q51.71-18.47 49.55-13.46Q47.40-8.46 43.72-4.43Q40.03-0.40 35.44 1.83L35.44 1.83L35.58-1.37Q39.48 0.71 42.05 3.56Q44.62 6.41 46.08 9.68Q47.54 12.95 47.82 16.70L47.82 16.70Q48.37 20.17 48.58 22.82Q48.79 25.46 49.41 27.26Q50.04 29.07 51.85 30.04L51.85 30.04Q54.91 31.85 55.67 35.26Q56.43 38.66 54.07 41.30L54.07 41.30Q52.54 43.11 50.18 43.60Q47.82 44.08 45.45 43.60Q43.09 43.11 41.56 42.28L41.56 42.28Q39.20 40.89 36.83 38.17Q34.47 35.46 33.01 30.88Q31.55 26.29 31.55 19.06L31.55 19.06Q31.55 16.70 30.72 14.68Q29.88 12.67 28.36 11.21Q26.83 9.75 24.46 8.98Q22.10 8.22 18.90 8.22L18.90 8.22L-9.17 8.22L-7.09 5.02L-7.09 35.19Q-7.09 38.80-9.04 41.23Q-10.98 43.67-14.46 43.67ZM-7.09-2.76L-9.04-6.10L23.35-6.10Q25.85-6.10 28.22-8.39Q30.58-10.68 32.11-14.65Q33.64-18.61 33.64-23.33L33.64-23.33Q33.64-29.45 30.37-33.55Q27.10-37.65 23.35-37.65L23.35-37.65L-8.76-37.65L-7.09-42.10L-7.09-2.76ZM130.38-32.09L130.38-32.09Q134.00-32.09 136.36-29.73Q138.72-27.36 138.72-23.61L138.72-23.61L138.72 35.19Q138.72 38.80 136.36 41.23Q134.00 43.67 130.38 43.67L130.38 43.67Q126.77 43.67 124.41 41.23Q122.04 38.80 122.04 35.19L122.04 35.19L122.04 28.38L125.10 29.63Q125.10 31.43 123.15 34.01Q121.21 36.58 117.87 39.08Q114.54 41.58 110.02 43.32Q105.50 45.06 100.22 45.06L100.22 45.06Q90.63 45.06 82.84 40.12Q75.06 35.19 70.54 26.50Q66.02 17.81 66.02 6.55L66.02 6.55Q66.02-4.85 70.54-13.53Q75.06-22.22 82.70-27.16Q90.35-32.09 99.66-32.09L99.66-32.09Q105.64-32.09 110.64-30.28Q115.65-28.48 119.33-25.70Q123.02-22.92 125.03-20.07Q127.05-17.22 127.05-15.27L127.05-15.27L122.04-13.46L122.04-23.61Q122.04-27.22 124.41-29.66Q126.77-32.09 130.38-32.09ZM102.30 29.77L102.30 29.77Q108.42 29.77 113.01 26.71Q117.59 23.65 120.17 18.37Q122.74 13.09 122.74 6.55L122.74 6.55Q122.74-0.12 120.17-5.40Q117.59-10.68 113.01-13.74Q108.42-16.80 102.30-16.80L102.30-16.80Q96.33-16.80 91.74-13.74Q87.15-10.68 84.58-5.40Q82.01-0.12 82.01 6.55L82.01 6.55Q82.01 13.09 84.58 18.37Q87.15 23.65 91.74 26.71Q96.33 29.77 102.30 29.77ZM189.18-32.09L189.18-32.09Q197.10-32.09 203.01-30.42Q208.92-28.75 212.18-25.77Q215.45-22.78 215.45-18.61L215.45-18.61Q215.45-15.83 213.78-13.39Q212.11-10.96 208.92-10.96L208.92-10.96Q206.69-10.96 205.23-11.59Q203.77-12.21 202.66-13.19Q201.55-14.16 200.02-14.99L200.02-14.99Q198.63-15.83 195.78-16.31Q192.93-16.80 191.54-16.80L191.54-16.80Q184.45-16.80 179.52-13.74Q174.58-10.68 171.94-5.47Q169.30-0.26 169.30 6.55L169.30 6.55Q169.30 13.22 172.01 18.44Q174.72 23.65 179.52 26.71Q184.31 29.77 190.57 29.77L190.57 29.77Q194.04 29.77 196.55 29.35Q199.05 28.93 200.72 28.10L200.72 28.10Q202.66 26.99 204.19 25.73Q205.72 24.48 208.78 24.48L208.78 24.48Q212.39 24.48 214.34 26.78Q216.28 29.07 216.28 32.41L216.28 32.41Q216.28 35.88 212.39 38.73Q208.50 41.58 202.18 43.32Q195.85 45.06 188.48 45.06L188.48 45.06Q177.50 45.06 169.44 39.98Q161.38 34.91 157.00 26.15Q152.62 17.39 152.62 6.55L152.62 6.55Q152.62-4.85 157.28-13.53Q161.94-22.22 170.21-27.16Q178.48-32.09 189.18-32.09ZM262.71 45.06L262.71 45.06Q250.90 45.06 242.21 40.12Q233.52 35.19 228.86 26.71Q224.21 18.23 224.21 7.53L224.21 7.53Q224.21-4.98 229.28-13.81Q234.35-22.64 242.56-27.36Q250.76-32.09 259.93-32.09L259.93-32.09Q267.02-32.09 273.34-29.17Q279.67-26.25 284.53-21.18Q289.40-16.10 292.25-9.43Q295.10-2.76 295.10 4.75L295.10 4.75Q294.96 8.08 292.46 10.17Q289.95 12.25 286.62 12.25L286.62 12.25L233.52 12.25L229.35-1.65L280.36-1.65L277.31 1.13L277.31-2.62Q277.03-6.65 274.46-9.85Q271.88-13.05 268.06-14.92Q264.24-16.80 259.93-16.80L259.93-16.80Q255.76-16.80 252.15-15.69Q248.53-14.58 245.89-11.93Q243.25-9.29 241.72-4.85Q240.19-0.40 240.19 6.41L240.19 6.41Q240.19 13.92 243.32 19.13Q246.45 24.34 251.38 27.05Q256.32 29.77 261.88 29.77L261.88 29.77Q267.02 29.77 270.08 28.93Q273.13 28.10 275.01 26.92Q276.89 25.73 278.42 24.90L278.42 24.90Q280.92 23.65 283.14 23.65L283.14 23.65Q286.20 23.65 288.22 25.73Q290.23 27.82 290.23 30.60L290.23 30.60Q290.23 34.35 286.34 37.41L286.34 37.41Q282.73 40.47 276.19 42.76Q269.66 45.06 262.71 45.06Z"/></g>
<g transform="matrix(0.05 0 0 0.05 33.1727 48.329)" style="" id="122068">
		
<path xml:space="preserve" font-family="Quicksand" font-size="72" font-weight="bold" style="stroke: none; stroke-width: 0; stroke-dasharray: none; stroke-linecap: butt; stroke-dashoffset: 0; stroke-linejoin: miter; stroke-miterlimit: 4; is-custom-font: none; font-file-url: none; fill: rgb(37,253,8); fill-rule: nonzero; opacity: 1; white-space: pre;" d="M-262.49 22.62L-262.49 22.62Q-264.51 22.62-266.09 21.36Q-267.67 20.10-267.67 18.23L-267.67 18.23L-267.67-23.39Q-267.67-25.26-266.41-26.52Q-265.15-27.78-263.28-27.78L-263.28-27.78L-242.55-27.78Q-238.80-27.78-235.53-25.80Q-232.25-23.82-230.23-20.33Q-228.22-16.84-228.22-12.30L-228.22-12.30Q-228.22-9.57-229.33-6.97Q-230.45-4.38-232.36-2.29Q-234.27-0.21-236.64 0.95L-236.64 0.95L-236.57-0.71Q-234.55 0.37-233.22 1.85Q-231.89 3.32-231.13 5.01Q-230.38 6.71-230.23 8.65L-230.23 8.65Q-229.95 10.45-229.84 11.82Q-229.73 13.19-229.41 14.12Q-229.08 15.06-228.15 15.56L-228.15 15.56Q-226.56 16.50-226.17 18.26Q-225.77 20.03-226.99 21.39L-226.99 21.39Q-227.79 22.33-229.01 22.58Q-230.23 22.83-231.46 22.58Q-232.68 22.33-233.47 21.90L-233.47 21.90Q-234.70 21.18-235.92 19.77Q-237.15 18.37-237.90 15.99Q-238.66 13.62-238.66 9.87L-238.66 9.87Q-238.66 8.65-239.09 7.61Q-239.52 6.56-240.31 5.81Q-241.11 5.05-242.33 4.65Q-243.55 4.26-245.21 4.26L-245.21 4.26L-259.75 4.26L-258.67 2.60L-258.67 18.23Q-258.67 20.10-259.68 21.36Q-260.69 22.62-262.49 22.62ZM-258.67-1.43L-259.68-3.16L-242.91-3.16Q-241.61-3.16-240.39-4.35Q-239.16-5.53-238.37-7.59Q-237.58-9.64-237.58-12.09L-237.58-12.09Q-237.58-15.25-239.27-17.38Q-240.96-19.50-242.91-19.50L-242.91-19.50L-259.54-19.50L-258.67-21.81L-258.67-1.43ZM-210.79-11.51L-210.79 18.23Q-210.79 20.10-212.02 21.36Q-213.24 22.62-215.11 22.62L-215.11 22.62Q-216.99 22.62-218.21 21.36Q-219.43 20.10-219.43 18.23L-219.43 18.23L-219.43-11.51Q-219.43-13.38-218.21-14.64Q-216.99-15.90-215.11-15.90L-215.11-15.90Q-213.24-15.90-212.02-14.64Q-210.79-13.38-210.79-11.51L-210.79-11.51ZM-215.19-20.58L-215.19-20.58Q-217.63-20.58-218.64-21.37Q-219.65-22.17-219.65-24.18L-219.65-24.18L-219.65-25.55Q-219.65-27.64-218.53-28.39Q-217.42-29.15-215.11-29.15L-215.11-29.15Q-212.59-29.15-211.59-28.36Q-210.58-27.57-210.58-25.55L-210.58-25.55L-210.58-24.18Q-210.58-22.09-211.66-21.34Q-212.74-20.58-215.19-20.58ZM-204.17 16.64L-204.17 16.64Q-204.89 15.63-204.82 14.05Q-204.75 12.47-202.95 11.31L-202.95 11.31Q-201.79 10.59-200.50 10.70Q-199.20 10.81-197.98 12.03L-197.98 12.03Q-195.89 14.12-193.59 15.27Q-191.28 16.43-187.83 16.43L-187.83 16.43Q-186.75 16.35-185.45 16.10Q-184.15 15.85-183.18 14.95Q-182.21 14.05-182.21 12.18L-182.21 12.18Q-182.21 10.59-183.29 9.66Q-184.37 8.72-186.13 8.07Q-187.90 7.43-190.06 6.85L-190.06 6.85Q-192.29 6.20-194.63 5.41Q-196.97 4.62-198.91 3.36Q-200.86 2.10-202.08 0.01Q-203.31-2.08-203.31-5.25L-203.31-5.25Q-203.31-8.85-201.29-11.37Q-199.27-13.89-196.07-15.25Q-192.87-16.62-189.34-16.62L-189.34-16.62Q-187.11-16.62-184.66-16.08Q-182.21-15.54-179.98-14.35Q-177.75-13.17-176.23-11.22L-176.23-11.22Q-175.44-10.14-175.30-8.63Q-175.15-7.12-176.67-5.89L-176.67-5.89Q-177.75-5.03-179.19-5.14Q-180.63-5.25-181.56-6.11L-181.56-6.11Q-182.79-7.69-184.84-8.63Q-186.89-9.57-189.55-9.57L-189.55-9.57Q-190.63-9.57-191.89-9.31Q-193.15-9.06-194.09-8.23Q-195.03-7.41-195.03-5.61L-195.03-5.61Q-195.03-3.95-193.95-2.98Q-192.87-2.01-191.03-1.39Q-189.19-0.78-187.11-0.21L-187.11-0.21Q-184.95 0.37-182.71 1.16Q-180.48 1.95-178.61 3.25Q-176.74 4.55-175.59 6.60Q-174.43 8.65-174.43 11.82L-174.43 11.82Q-174.43 15.49-176.59 18.08Q-178.75 20.67-181.99 22.01Q-185.23 23.34-188.62 23.34L-188.62 23.34Q-192.87 23.34-197.11 21.86Q-201.36 20.39-204.17 16.64ZM-149.45 23.34L-149.45 23.34Q-155.57 23.34-160.07 20.78Q-164.57 18.23-166.98 13.83Q-169.39 9.44-169.39 3.90L-169.39 3.90Q-169.39-2.58-166.77-7.15Q-164.14-11.73-159.89-14.17Q-155.64-16.62-150.89-16.62L-150.89-16.62Q-147.22-16.62-143.94-15.11Q-140.67-13.60-138.15-10.97Q-135.63-8.34-134.15-4.89Q-132.67-1.43-132.67 2.46L-132.67 2.46Q-132.75 4.19-134.04 5.27Q-135.34 6.35-137.07 6.35L-137.07 6.35L-164.57 6.35L-166.73-0.85L-140.31-0.85L-141.89 0.59L-141.89-1.36Q-142.03-3.45-143.37-5.10Q-144.70-6.76-146.68-7.73Q-148.66-8.70-150.89-8.70L-150.89-8.70Q-153.05-8.70-154.92-8.13Q-156.79-7.55-158.16-6.18Q-159.53-4.81-160.32-2.51Q-161.11-0.21-161.11 3.32L-161.11 3.32Q-161.11 7.21-159.49 9.91Q-157.87 12.61-155.32 14.01Q-152.76 15.42-149.88 15.42L-149.88 15.42Q-147.22 15.42-145.63 14.99Q-144.05 14.55-143.08 13.94Q-142.11 13.33-141.31 12.90L-141.31 12.90Q-140.02 12.25-138.87 12.25L-138.87 12.25Q-137.28 12.25-136.24 13.33Q-135.19 14.41-135.19 15.85L-135.19 15.85Q-135.19 17.79-137.21 19.38L-137.21 19.38Q-139.08 20.96-142.47 22.15Q-145.85 23.34-149.45 23.34ZM-68.31 3.39L-68.31 3.39Q-68.31 9.30-70.93 13.80Q-73.56 18.30-77.99 20.82Q-82.42 23.34-87.89 23.34L-87.89 23.34Q-93.36 23.34-97.79 20.82Q-102.22 18.30-104.85 13.80Q-107.47 9.30-107.47 3.39L-107.47 3.39Q-107.47-2.51-104.85-7.01Q-102.22-11.51-97.79-14.07Q-93.36-16.62-87.89-16.62L-87.89-16.62Q-82.42-16.62-77.99-14.07Q-73.56-11.51-70.93-7.01Q-68.31-2.51-68.31 3.39ZM-76.95 3.39L-76.95 3.39Q-76.95-0.28-78.42-2.98Q-79.90-5.68-82.38-7.19Q-84.87-8.70-87.89-8.70L-87.89-8.70Q-90.91-8.70-93.40-7.19Q-95.88-5.68-97.36-2.98Q-98.83-0.28-98.83 3.39L-98.83 3.39Q-98.83 6.99-97.36 9.69Q-95.88 12.39-93.40 13.91Q-90.91 15.42-87.89 15.42L-87.89 15.42Q-84.87 15.42-82.38 13.91Q-79.90 12.39-78.42 9.69Q-76.95 6.99-76.95 3.39ZM-41.31-30.66L-41.31-30.66Q-39.72-30.66-38.21-30.23Q-36.70-29.80-35.69-28.83Q-34.68-27.85-34.68-26.27L-34.68-26.27Q-34.68-24.47-35.73-23.43Q-36.77-22.38-38.14-22.38L-38.14-22.38Q-38.79-22.38-40.08-22.71Q-41.38-23.03-42.60-23.03L-42.60-23.03Q-44.40-23.03-45.37-22.24Q-46.35-21.45-46.71-20.40Q-47.07-19.36-47.07-18.57L-47.07-18.57L-47.07 18.23Q-47.07 20.10-48.29 21.36Q-49.51 22.62-51.39 22.62L-51.39 22.62Q-53.26 22.62-54.48 21.36Q-55.71 20.10-55.71 18.23L-55.71 18.23L-55.71-18.49Q-55.71-23.61-52.11-27.13Q-48.51-30.66-41.31-30.66ZM-59.59-15.18L-40.51-15.18Q-38.79-15.18-37.63-14.07Q-36.48-12.95-36.48-11.22L-36.48-11.22Q-36.48-9.49-37.63-8.38Q-38.79-7.26-40.51-7.26L-40.51-7.26L-59.59-7.26Q-61.32-7.26-62.47-8.38Q-63.63-9.49-63.63-11.22L-63.63-11.22Q-63.63-12.95-62.47-14.07Q-61.32-15.18-59.59-15.18L-59.59-15.18ZM-10.49-15.18L-10.49-15.18L6.57-15.18Q8.30-15.18 9.45-14.03Q10.61-12.88 10.61-11.15L10.61-11.15Q10.61-9.49 9.45-8.38Q8.30-7.26 6.57-7.26L6.57-7.26L-10.49-7.26Q-12.22-7.26-13.37-8.41Q-14.52-9.57-14.52-11.29L-14.52-11.29Q-14.52-12.95-13.37-14.07Q-12.22-15.18-10.49-15.18ZM-2.79-24.18L-2.79-24.18Q-0.91-24.18 0.27-22.92Q1.46-21.66 1.46-19.79L1.46-19.79L1.46 12.25Q1.46 13.26 1.86 13.91Q2.25 14.55 2.94 14.84Q3.62 15.13 4.41 15.13L4.41 15.13Q5.28 15.13 6.00 14.81Q6.72 14.48 7.65 14.48L7.65 14.48Q8.66 14.48 9.49 15.42Q10.32 16.35 10.32 18.01L10.32 18.01Q10.32 20.03 8.12 21.32Q5.93 22.62 3.41 22.62L3.41 22.62Q1.89 22.62 0.06 22.37Q-1.78 22.11-3.40 21.14Q-5.02 20.17-6.10 18.15Q-7.18 16.14-7.18 12.61L-7.18 12.61L-7.18-19.79Q-7.18-21.66-5.92-22.92Q-4.66-24.18-2.79-24.18ZM38.76-16.62L38.76-16.62Q43.94-16.62 46.64-14.39Q49.34-12.16 50.35-8.45Q51.36-4.74 51.36-0.21L51.36-0.21L51.36 18.23Q51.36 20.10 50.13 21.36Q48.91 22.62 47.04 22.62L47.04 22.62Q45.17 22.62 43.94 21.36Q42.72 20.10 42.72 18.23L42.72 18.23L42.72-0.21Q42.72-2.58 42.14-4.49Q41.57-6.40 40.05-7.55Q38.54-8.70 35.73-8.70L35.73-8.70Q33.00-8.70 31.05-7.55Q29.11-6.40 28.14-4.49Q27.17-2.58 27.17-0.21L27.17-0.21L27.17 18.23Q27.17 20.10 25.94 21.36Q24.72 22.62 22.85 22.62L22.85 22.62Q20.97 22.62 19.75 21.36Q18.53 20.10 18.53 18.23L18.53 18.23L18.53-26.27Q18.53-28.14 19.75-29.40Q20.97-30.66 22.85-30.66L22.85-30.66Q24.72-30.66 25.94-29.40Q27.17-28.14 27.17-26.27L27.17-26.27L27.17-8.41L26.09-8.63Q26.73-9.85 27.89-11.26Q29.04-12.66 30.69-13.89Q32.35-15.11 34.37-15.87Q36.38-16.62 38.76-16.62ZM78.50 23.34L78.50 23.34Q72.38 23.34 67.88 20.78Q63.38 18.23 60.97 13.83Q58.56 9.44 58.56 3.90L58.56 3.90Q58.56-2.58 61.19-7.15Q63.81-11.73 68.06-14.17Q72.31-16.62 77.06-16.62L77.06-16.62Q80.73-16.62 84.01-15.11Q87.29-13.60 89.81-10.97Q92.33-8.34 93.80-4.89Q95.28-1.43 95.28 2.46L95.28 2.46Q95.21 4.19 93.91 5.27Q92.61 6.35 90.89 6.35L90.89 6.35L63.38 6.35L61.22-0.85L87.65-0.85L86.06 0.59L86.06-1.36Q85.92-3.45 84.59-5.10Q83.25-6.76 81.27-7.73Q79.29-8.70 77.06-8.70L77.06-8.70Q74.90-8.70 73.03-8.13Q71.16-7.55 69.79-6.18Q68.42-4.81 67.63-2.51Q66.84-0.21 66.84 3.32L66.84 3.32Q66.84 7.21 68.46 9.91Q70.08 12.61 72.63 14.01Q75.19 15.42 78.07 15.42L78.07 15.42Q80.73 15.42 82.32 14.99Q83.90 14.55 84.87 13.94Q85.85 13.33 86.64 12.90L86.64 12.90Q87.93 12.25 89.09 12.25L89.09 12.25Q90.67 12.25 91.71 13.33Q92.76 14.41 92.76 15.85L92.76 15.85Q92.76 17.79 90.74 19.38L90.74 19.38Q88.87 20.96 85.49 22.15Q82.10 23.34 78.50 23.34ZM127.89 22.62L127.89 22.62Q125.88 22.62 124.62 21.36Q123.36 20.10 123.36 18.23L123.36 18.23L123.36-23.39Q123.36-25.26 124.62-26.52Q125.88-27.78 127.75-27.78L127.75-27.78L151.15-27.78Q153.02-27.78 154.28-26.59Q155.54-25.41 155.54-23.53L155.54-23.53Q155.54-21.95 154.28-20.73Q153.02-19.50 151.15-19.50L151.15-19.50L131.71-19.50L132.36-20.37L132.36-5.89L131.85-6.83L147.91-6.83Q149.78-6.83 151.04-5.64Q152.30-4.45 152.30-2.58L152.30-2.58Q152.30-1.00 151.04 0.23Q149.78 1.45 147.91 1.45L147.91 1.45L131.71 1.45L132.36 0.80L132.36 18.23Q132.36 20.10 131.03 21.36Q129.69 22.62 127.89 22.62ZM199.03 3.39L199.03 3.39Q199.03 9.30 196.40 13.80Q193.77 18.30 189.35 20.82Q184.92 23.34 179.45 23.34L179.45 23.34Q173.97 23.34 169.55 20.82Q165.12 18.30 162.49 13.80Q159.86 9.30 159.86 3.39L159.86 3.39Q159.86-2.51 162.49-7.01Q165.12-11.51 169.55-14.07Q173.97-16.62 179.45-16.62L179.45-16.62Q184.92-16.62 189.35-14.07Q193.77-11.51 196.40-7.01Q199.03-2.51 199.03 3.39ZM190.39 3.39L190.39 3.39Q190.39-0.28 188.91-2.98Q187.44-5.68 184.95-7.19Q182.47-8.70 179.45-8.70L179.45-8.70Q176.42-8.70 173.94-7.19Q171.45-5.68 169.98-2.98Q168.50-0.28 168.50 3.39L168.50 3.39Q168.50 6.99 169.98 9.69Q171.45 12.39 173.94 13.91Q176.42 15.42 179.45 15.42L179.45 15.42Q182.47 15.42 184.95 13.91Q187.44 12.39 188.91 9.69Q190.39 6.99 190.39 3.39ZM210.55 22.62L210.55 22.62Q208.68 22.62 207.45 21.36Q206.23 20.10 206.23 18.23L206.23 18.23L206.23-11.51Q206.23-13.38 207.45-14.64Q208.68-15.90 210.55-15.90L210.55-15.90Q212.42-15.90 213.65-14.64Q214.87-13.38 214.87-11.51L214.87-11.51L214.87-4.74L214.37-9.57Q215.16-11.29 216.42-12.63Q217.68-13.96 219.26-14.86Q220.85-15.76 222.65-16.19Q224.45-16.62 226.25-16.62L226.25-16.62Q228.41-16.62 229.88-15.40Q231.36-14.17 231.36-12.52L231.36-12.52Q231.36-10.14 230.13-9.10Q228.91-8.05 227.47-8.05L227.47-8.05Q226.10-8.05 224.99-8.56Q223.87-9.06 222.43-9.06L222.43-9.06Q221.13-9.06 219.80-8.45Q218.47-7.84 217.35-6.54Q216.24-5.25 215.55-3.34Q214.87-1.43 214.87 1.16L214.87 1.16L214.87 18.23Q214.87 20.10 213.65 21.36Q212.42 22.62 210.55 22.62ZM252.67-16.62L252.67-16.62Q256.77-16.62 259.83-15.76Q262.89-14.89 264.59-13.35Q266.28-11.80 266.28-9.64L266.28-9.64Q266.28-8.20 265.41-6.94Q264.55-5.68 262.89-5.68L262.89-5.68Q261.74-5.68 260.99-6.00Q260.23-6.33 259.65-6.83Q259.08-7.33 258.29-7.77L258.29-7.77Q257.57-8.20 256.09-8.45Q254.61-8.70 253.89-8.70L253.89-8.70Q250.22-8.70 247.67-7.12Q245.11-5.53 243.74-2.83Q242.37-0.13 242.37 3.39L242.37 3.39Q242.37 6.85 243.78 9.55Q245.18 12.25 247.67 13.83Q250.15 15.42 253.39 15.42L253.39 15.42Q255.19 15.42 256.49 15.20Q257.78 14.99 258.65 14.55L258.65 14.55Q259.65 13.98 260.45 13.33Q261.24 12.68 262.82 12.68L262.82 12.68Q264.69 12.68 265.70 13.87Q266.71 15.06 266.71 16.79L266.71 16.79Q266.71 18.59 264.69 20.06Q262.68 21.54 259.40 22.44Q256.13 23.34 252.31 23.34L252.31 23.34Q246.62 23.34 242.45 20.71Q238.27 18.08 236.00 13.55Q233.73 9.01 233.73 3.39L233.73 3.39Q233.73-2.51 236.15-7.01Q238.56-11.51 242.84-14.07Q247.13-16.62 252.67-16.62ZM290.76 23.34L290.76 23.34Q284.64 23.34 280.14 20.78Q275.64 18.23 273.23 13.83Q270.81 9.44 270.81 3.90L270.81 3.90Q270.81-2.58 273.44-7.15Q276.07-11.73 280.32-14.17Q284.57-16.62 289.32-16.62L289.32-16.62Q292.99-16.62 296.27-15.11Q299.54-13.60 302.06-10.97Q304.58-8.34 306.06-4.89Q307.53-1.43 307.53 2.46L307.53 2.46Q307.46 4.19 306.17 5.27Q304.87 6.35 303.14 6.35L303.14 6.35L275.64 6.35L273.48-0.85L299.90-0.85L298.32 0.59L298.32-1.36Q298.17-3.45 296.84-5.10Q295.51-6.76 293.53-7.73Q291.55-8.70 289.32-8.70L289.32-8.70Q287.16-8.70 285.29-8.13Q283.41-7.55 282.05-6.18Q280.68-4.81 279.89-2.51Q279.09-0.21 279.09 3.32L279.09 3.32Q279.09 7.21 280.71 9.91Q282.33 12.61 284.89 14.01Q287.45 15.42 290.33 15.42L290.33 15.42Q292.99 15.42 294.57 14.99Q296.16 14.55 297.13 13.94Q298.10 13.33 298.89 12.90L298.89 12.90Q300.19 12.25 301.34 12.25L301.34 12.25Q302.93 12.25 303.97 13.33Q305.01 14.41 305.01 15.85L305.01 15.85Q305.01 17.79 303.00 19.38L303.00 19.38Q301.13 20.96 297.74 22.15Q294.36 23.34 290.76 23.34Z"/></g>
</svg>