<svg width="220" height="260" xmlns="http://www.w3.org/2000/svg" xml:space="preserve" version="1.1">
 <g id="Layer_1">
  <title>Layer 1</title>
  <text style="cursor: move;" font-weight="normal" xml:space="preserve" text-anchor="start" font-family="Lato" font-size="35" id="svg_2" y="34" x="46.04687" stroke-dasharray="2,2" stroke-width="0" stroke="#000000" fill="#5fbf00">Phase 3</text>
  <text style="cursor: move;" transform="matrix(1.0843 0 0 1 -18.111 0)" stroke="#000000" xml:space="preserve" text-anchor="start" font-family="'Alegreya'" font-size="18" id="svg_3" y="67" x="50" stroke-dasharray="2,2" stroke-width="0" fill="#5f00bf" font-weight="bold">5000 TG member</text>
  <path fill="#000000" stroke="#000000" stroke-width="0" stroke-dasharray="2,2" d="m23.31412,152.91765c0.4733,-0.45233 0.92595,-0.97381 1.3247,-1.44192l-11.94804,-0.21479l-1.63886,1.8498l-5.19194,-0.15888c0.65055,-0.84219 1.36321,-1.83154 1.89159,-2.57464l-1.87953,-2.49814l5.53969,0l1.12715,1.56086l12.19866,0l-1.51315,-1.55737c0.46697,-0.49078 1.15808,-1.14575 1.53297,-1.48915l4.10262,3.96923l-4.11195,4.0308l-1.43391,-1.4758l0,0z" id="svg_15"/>
  <path fill="#000000" stroke="#000000" stroke-width="0" stroke-dasharray="2,2" d="m23.31412,129.91765c0.4733,-0.45233 0.92595,-0.97381 1.3247,-1.44192l-11.94804,-0.21479l-1.63886,1.8498l-5.19194,-0.15888c0.65055,-0.84219 1.36321,-1.83154 1.89159,-2.57464l-1.87953,-2.49814l5.53969,0l1.12715,1.56086l12.19866,0l-1.51315,-1.55737c0.46697,-0.49078 1.15808,-1.14575 1.53297,-1.48915l4.10262,3.96923l-4.11195,4.0308l-1.43391,-1.4758l0,0z" id="svg_16"/>
  <path fill="#000000" stroke="#000000" stroke-width="0" stroke-dasharray="2,2" d="m23.31412,106.91765c0.4733,-0.45233 0.92595,-0.97381 1.3247,-1.44192l-11.94804,-0.21479l-1.63886,1.8498l-5.19194,-0.15888c0.65055,-0.84219 1.36321,-1.83154 1.89159,-2.57464l-1.87953,-2.49814l5.53969,0l1.12715,1.56086l12.19866,0l-1.51315,-1.55737c0.46697,-0.49078 1.15808,-1.14575 1.53297,-1.48915l4.10262,3.96923l-4.11195,4.0308l-1.43391,-1.4758l0,0z" id="svg_17"/>
  <path fill="#000000" stroke="#000000" stroke-width="0" stroke-dasharray="2,2" d="m23.31412,84.91765c0.4733,-0.45233 0.92595,-0.97381 1.3247,-1.44192l-11.94804,-0.21479l-1.63886,1.8498l-5.19194,-0.15888c0.65055,-0.84219 1.36321,-1.83154 1.89159,-2.57464l-1.87953,-2.49814l5.53969,0l1.12715,1.56086l12.19866,0l-1.51315,-1.55737c0.46697,-0.49078 1.15808,-1.14575 1.53297,-1.48915l4.10262,3.96923l-4.11195,4.0308l-1.43391,-1.4758l0,0z" id="svg_18"/>
  <path fill="#000000" stroke="#000000" stroke-width="0" stroke-dasharray="2,2" d="m23.31412,62.91765c0.4733,-0.45233 0.92595,-0.97381 1.3247,-1.44192l-11.94804,-0.21479l-1.63886,1.8498l-5.19194,-0.15888c0.65055,-0.84219 1.36321,-1.83154 1.89159,-2.57464l-1.87953,-2.49814l5.53969,0l1.12715,1.56086l12.19866,0l-1.51315,-1.55737c0.46697,-0.49078 1.15808,-1.14575 1.53297,-1.48915l4.10262,3.96923l-4.11195,4.0308l-1.43391,-1.4758l0,0z" id="svg_19"/>
  <text style="cursor: move;" transform="matrix(1.0843 0 0 1 -18.111 0)" stroke="#000000" xml:space="preserve" text-anchor="start" font-family="'Alegreya'" font-size="18" id="svg_25" y="88" x="50" stroke-dasharray="2,2" stroke-width="0" fill="#5f00bf" font-weight="bold">1000 holders</text>
  <text style="cursor: move;" transform="matrix(1.0843 0 0 1 -18.111 0)" stroke="#000000" xml:space="preserve" text-anchor="start" font-family="'Alegreya'" font-size="18" id="svg_26" y="110" x="50" stroke-dasharray="2,2" stroke-width="0" fill="#5f00bf" font-weight="bold">CEX list plan</text>
  <text style="cursor: move;" transform="matrix(1.0843 0 0 1 -18.111 0)" stroke="#000000" xml:space="preserve" text-anchor="start" font-family="'Alegreya'" font-size="18" id="svg_28" y="156" x="50" stroke-dasharray="2,2" stroke-width="0" fill="#5f00bf" font-weight="bold">1000 NFT release</text>
  <text style="cursor: move;" transform="matrix(1.0843 0 0 1 -18.111 0)" stroke="#000000" xml:space="preserve" text-anchor="start" font-family="'Alegreya'" font-size="18" id="svg_30" y="133" x="50" stroke-dasharray="2,2" stroke-width="0" fill="#5f00bf" font-weight="bold">Alpha game release</text>
 </g>

</svg>