<?xml version="1.0" encoding="UTF-8" standalone="no"?><svg xmlns="http://www.w3.org/2000/svg" xmlns:xlink= "http://www.w3.org/1999/xlink" width="600" height="390" aria-label="A chart." style="overflow: hidden;"><defs id="_ABSTRACT_RENDERER_ID_6"><filter id="_ABSTRACT_RENDERER_ID_7"><feGaussianBlur in="SourceAlpha" stdDeviation="2"></feGaussianBlur><feOffset dx="1" dy="1"></feOffset><feComponentTransfer><feFuncA type="linear" slope="0.1"></feFuncA></feComponentTransfer><feMerge><feMergeNode></feMergeNode><feMergeNode in="SourceGraphic"></feMergeNode></feMerge></filter></defs><rect x="0" y="0" width="600" height="390" stroke="none" stroke-width="0" fill="#ffffff"></rect><g><text text-anchor="start" x="115" y="52.05" font-family="Arial" font-size="13" font-weight="bold" stroke="none" stroke-width="0" fill="#000000">DFXR(1000000)</text><rect x="115" y="41" width="371" height="13" stroke="none" stroke-width="0" fill-opacity="0" fill="#ffffff"></rect></g><g><rect x="115" y="75" width="121" height="97" stroke="none" stroke-width="0" fill-opacity="0" fill="#ffffff"></rect><g column-id="PrivateSale"><rect x="115" y="75" width="121" height="13" stroke="none" stroke-width="0" fill-opacity="0" fill="#ffffff"></rect><g><text text-anchor="start" x="133" y="86.05" font-family="Arial" font-size="13" stroke="none" stroke-width="0" fill="#222222">PrivateSale</text></g><circle cx="121.5" cy="81.5" r="6.5" stroke="none" stroke-width="0" fill="#3366cc"></circle></g><g column-id="Presale"><rect x="115" y="96" width="121" height="13" stroke="none" stroke-width="0" fill-opacity="0" fill="#ffffff"></rect><g><text text-anchor="start" x="133" y="107.05" font-family="Arial" font-size="13" stroke="none" stroke-width="0" fill="#222222">Presale</text></g><circle cx="121.5" cy="102.5" r="6.5" stroke="none" stroke-width="0" fill="#dc3912"></circle></g><g column-id="DEXLiq"><rect x="115" y="117" width="121" height="13" stroke="none" stroke-width="0" fill-opacity="0" fill="#ffffff"></rect><g><text text-anchor="start" x="133" y="128.05" font-family="Arial" font-size="13" stroke="none" stroke-width="0" fill="#222222">DEXLiq</text></g><circle cx="121.5" cy="123.5" r="6.5" stroke="none" stroke-width="0" fill="#ff9900"></circle></g><g column-id="CEXLiq"><rect x="115" y="138" width="121" height="13" stroke="none" stroke-width="0" fill-opacity="0" fill="#ffffff"></rect><g><text text-anchor="start" x="133" y="149.05" font-family="Arial" font-size="13" stroke="none" stroke-width="0" fill="#222222">CEXLiq</text></g><circle cx="121.5" cy="144.5" r="6.5" stroke="none" stroke-width="0" fill="#109618"></circle></g><g column-id="GameRewards"><rect x="115" y="159" width="121" height="13" stroke="none" stroke-width="0" fill-opacity="0" fill="#ffffff"></rect><g><text text-anchor="start" x="133" y="170.05" font-family="Arial" font-size="13" stroke="none" stroke-width="0" fill="#222222">GameRewards</text></g><circle cx="121.5" cy="165.5" r="6.5" stroke="none" stroke-width="0" fill="#990099"></circle></g></g><g><path d="M372,184.6L372,207.4L407.227937358744,120.66364571388199L407.227937358744,97.863645713882" stroke="#264d99" stroke-width="1" fill="#264d99"></path><path d="M372,184.6L372,93.39999999999999A114,91.2,0,0,1,407.227937358744,97.863645713882L372,184.6A0,0,0,0,0,372,184.6" stroke="#3366cc" stroke-width="1" fill="#3366cc"></path></g><g><path d="M486,184.6L486,207.4A114,91.2,0,0,1,486,207.4L486,184.6A114,91.2,0,0,0,486,184.6" stroke="#a52b0e" stroke-width="1" fill="#a52b0e"></path><path d="M372,184.6L372,207.4L486,207.4L486,184.6" stroke="#a52b0e" stroke-width="1" fill="#a52b0e"></path><path d="M372,184.6L407.227937358744,97.863645713882A114,91.2,0,0,1,486,184.6L372,184.6A0,0,0,0,0,372,184.6" stroke="#dc3912" stroke-width="1" fill="#dc3912"></path><text text-anchor="start" x="428.2070897678954" y="150.21887022427418" font-family="Arial" font-size="13" stroke="none" stroke-width="0" fill="#ffffff">20%</text></g><g><path d="M486,184.6L486,207.4A114,91.2,0,0,1,459.83850967643997,265.5330678650805L459.83850967643997,242.7330678650805A114,91.2,0,0,0,486,184.6" stroke="#bf7300" stroke-width="1" fill="#bf7300"></path><path d="M372,184.6L372,207.4L459.83850967643997,265.5330678650805L459.83850967643997,242.7330678650805" stroke="#bf7300" stroke-width="1" fill="#bf7300"></path><path d="M372,184.6L486,184.6A114,91.2,0,0,1,459.83850967643997,242.7330678650805L372,184.6A0,0,0,0,0,372,184.6" stroke="#ff9900" stroke-width="1" fill="#ff9900"></path><text text-anchor="start" x="440.7250458808328" y="211.7914673627678" font-family="Arial" font-size="13" stroke="none" stroke-width="0" fill="#ffffff">11%</text></g><g><path d="M372,275.8L372,298.6A114,91.2,0,0,1,258,207.4L258,184.6A114,91.2,0,0,0,372,275.8" stroke="#730073" stroke-width="1" fill="#730073"></path><path d="M372,184.6L372,275.8A114,91.2,0,0,1,372,93.39999999999999L372,184.6A0,0,0,0,0,372,184.6" stroke="#990099" stroke-width="1" fill="#990099"></path><text text-anchor="start" x="271.3495076355038" y="189.15000000000003" font-family="Arial" font-size="13" stroke="none" stroke-width="0" fill="#ffffff">50%</text></g><g><path d="M459.83850967643997,242.7330678650805L459.83850967643997,265.5330678650805A114,91.2,0,0,1,372,298.6L372,275.8A114,91.2,0,0,0,459.83850967643997,242.7330678650805" stroke="#0c7112" stroke-width="1" fill="#0c7112"></path><path d="M372,184.6L459.83850967643997,242.7330678650805A114,91.2,0,0,1,372,275.8L372,184.6A0,0,0,0,0,372,184.6" stroke="#109618" stroke-width="1" fill="#109618"></path><text text-anchor="start" x="396.27112320056983" y="250.47518989640685" font-family="Arial" font-size="13" stroke="none" stroke-width="0" fill="#ffffff">14%</text></g><g></g></svg>