<svg xmlns="http://www.w3.org/2000/svg" xmlns:xlink="http://www.w3.org/1999/xlink" version="1.1" width="100" height="100" viewBox="0 0 100 100" xml:space="preserve">
<desc>Created with Fabric.js 3.5.0</desc>
<defs>
</defs>
<rect x="0" y="0" width="100%" height="100%" fill="#ffffff"/>
<g transform="matrix(0.1943 0 0 0.1943 50.0667 50.0667)" id="197845">
<g style="" vector-effect="non-scaling-stroke">
		<g transform="matrix(1 0 0 1 -0.2475 -24.154)" id="Layer_1">
<path style="stroke: none; stroke-width: 1; stroke-dasharray: none; stroke-linecap: butt; stroke-dashoffset: 0; stroke-linejoin: miter; stroke-miterlimit: 4; is-custom-font: none; font-file-url: none; fill: rgb(243,209,187); fill-rule: nonzero; opacity: 1;" transform=" translate(-255.7539, -231.8475)" d="M 375.905 135.81 v 200.078 c 0 66.3 -53.746 120.048 -120.047 120.048 s -120.048 -53.747 -120.048 -120.048 V 135.81 c 0 0 -10.572 -113.846 119.348 -128.051 C 255.16 7.759 370.437 9.64 375.905 135.81 z" stroke-linecap="round"/>
</g>
		<g transform="matrix(1 0 0 1 60.0235 -24.154)" id="Layer_1">
<path style="stroke: none; stroke-width: 1; stroke-dasharray: none; stroke-linecap: butt; stroke-dashoffset: 0; stroke-linejoin: miter; stroke-miterlimit: 4; is-custom-font: none; font-file-url: none; fill: rgb(232,192,168); fill-rule: nonzero; opacity: 1;" transform=" translate(-316.025, -231.8475)" d="M 376.398 135.706 v 200.182 c 0 66.3 -53.746 120.048 -120.047 120.048 L 255.652 7.759 c 0 0 114.134 1.581 120.047 128.051" stroke-linecap="round"/>
</g>
		<g transform="matrix(1 0 0 1 -0.3255 159.918)" id="Layer_1">
<path style="stroke: none; stroke-width: 1; stroke-dasharray: none; stroke-linecap: butt; stroke-dashoffset: 0; stroke-linejoin: miter; stroke-miterlimit: 4; is-custom-font: none; font-file-url: none; fill: rgb(243,209,187); fill-rule: nonzero; opacity: 1;" transform=" translate(-255.676, -415.9195)" d="M 503.098 511.957 H 8.254 v -8.51 c 0 -101.381 82.185 -183.565 183.565 -183.565 h 127.712 c 101.381 0 183.566 82.185 183.566 183.565 v 8.51 H 503.098 z" stroke-linecap="round"/>
</g>
		<g transform="matrix(1 0 0 1 123.5865 159.918)" id="Layer_1">
<path style="stroke: none; stroke-width: 1; stroke-dasharray: none; stroke-linecap: butt; stroke-dashoffset: 0; stroke-linejoin: miter; stroke-miterlimit: 4; is-custom-font: none; font-file-url: none; fill: rgb(232,192,168); fill-rule: nonzero; opacity: 1;" transform=" translate(-379.588, -415.9195)" d="M 311.023 319.882 c 106.08 0 192.075 85.994 192.075 192.075 l 0 0 h -247.02 l 0.273 -192.075 H 311.023 z" stroke-linecap="round"/>
</g>
		<g transform="matrix(1 0 0 1 137.473 -56.1675)" id="Layer_1">
<path style="stroke: none; stroke-width: 1; stroke-dasharray: none; stroke-linecap: butt; stroke-dashoffset: 0; stroke-linejoin: miter; stroke-miterlimit: 4; is-custom-font: none; font-file-url: none; fill: rgb(232,192,168); fill-rule: nonzero; opacity: 1;" transform=" translate(-393.4745, -199.834)" d="M 381.47 175.825 c 13.259 0 24.009 10.75 24.009 24.009 c 0 13.259 -10.75 24.009 -24.009 24.009" stroke-linecap="round"/>
</g>
		<g transform="matrix(1 0 0 1 -135.518 -56.1665)" id="Layer_1">
<path style="stroke: none; stroke-width: 1; stroke-dasharray: none; stroke-linecap: butt; stroke-dashoffset: 0; stroke-linejoin: miter; stroke-miterlimit: 4; is-custom-font: none; font-file-url: none; fill: rgb(243,209,187); fill-rule: nonzero; opacity: 1;" transform=" translate(-120.4835, -199.835)" d="M 132.488 223.844 c -13.26 0 -24.009 -10.75 -24.009 -24.009 c 0 -13.26 10.75 -24.009 24.009 -24.009" stroke-linecap="round"/>
</g>
		<g transform="matrix(1 0 0 1 -0.0005 107.8985)" id="Layer_1">
<path style="stroke: none; stroke-width: 1; stroke-dasharray: none; stroke-linecap: butt; stroke-dashoffset: 0; stroke-linejoin: miter; stroke-miterlimit: 4; is-custom-font: none; font-file-url: none; fill: rgb(149,193,31); fill-rule: nonzero; opacity: 1;" transform=" translate(-256.001, -363.9)" d="M 376.398 335.888 c 0 66.3 -53.746 120.048 -120.047 120.048 s -120.048 -53.747 -120.048 -120.048 l -0.699 -56.021 c 0 0 37.014 11.004 72.028 -8.003 h 96.038 c 0 0 38.015 17.006 72.028 0 L 376.398 335.888 z" stroke-linecap="round"/>
</g>
		<g transform="matrix(1 0 0 1 60.373 107.896)" id="Layer_1">
<path style="stroke: none; stroke-width: 1; stroke-dasharray: none; stroke-linecap: butt; stroke-dashoffset: 0; stroke-linejoin: miter; stroke-miterlimit: 4; is-custom-font: none; font-file-url: none; fill: rgb(58,170,53); fill-rule: nonzero; opacity: 1;" transform=" translate(-316.3745, -363.8975)" d="M 256.351 455.934 c 66.3 0 120.047 -53.747 120.047 -120.048 l -0.699 -64.025 c -34.013 17.006 -72.028 0 -72.028 0 S 319.376 436.927 256.351 455.934" stroke-linecap="round"/>
</g>
		<g transform="matrix(1 0 0 1 51.6665 -168.2125)" id="Layer_1">
<rect style="stroke: none; stroke-width: 1; stroke-dasharray: none; stroke-linecap: butt; stroke-dashoffset: 0; stroke-linejoin: miter; stroke-miterlimit: 4; is-custom-font: none; font-file-url: none; fill: rgb(58,170,53); fill-rule: nonzero; opacity: 1;" x="-20.008" y="-7.759" rx="0" ry="0" width="40.016" height="15.518"/>
</g>
		<g transform="matrix(1 0 0 1 152.4075 215.9355)" id="Layer_1">
<rect style="stroke: none; stroke-width: 1; stroke-dasharray: none; stroke-linecap: butt; stroke-dashoffset: 0; stroke-linejoin: miter; stroke-miterlimit: 4; is-custom-font: none; font-file-url: none; fill: rgb(29,29,27); fill-rule: nonzero; opacity: 1;" x="-7.759" y="-40.015" rx="0" ry="0" width="15.518" height="80.03"/>
</g>
		<g transform="matrix(-0.0056 -1 1 -0.0056 -151.9273 215.9417)" id="Layer_1">
<rect style="stroke: none; stroke-width: 1; stroke-dasharray: none; stroke-linecap: butt; stroke-dashoffset: 0; stroke-linejoin: miter; stroke-miterlimit: 4; is-custom-font: none; font-file-url: none; fill: rgb(29,29,27); fill-rule: nonzero; opacity: 1;" x="-40.016" y="-7.759" rx="0" ry="0" width="80.032" height="15.518"/>
</g>
		<g transform="matrix(1 0 0 1 31.663 23.8635)" id="Layer_1">
<path style="stroke: none; stroke-width: 1; stroke-dasharray: none; stroke-linecap: butt; stroke-dashoffset: 0; stroke-linejoin: miter; stroke-miterlimit: 4; is-custom-font: none; font-file-url: none; fill: rgb(58,170,53); fill-rule: nonzero; opacity: 1;" transform=" translate(-287.6645, -279.865)" d="M 319.677 303.874 c -8.84 0 -16.007 -7.166 -16.007 -16.006 v -8.003 c 0 -13.26 -10.75 -24.009 -24.009 -24.009 c -13.259 0 -24.009 10.75 -24.009 24.009 c 0 13.259 10.75 24.009 24.009 24.009 L 319.677 303.874" stroke-linecap="round"/>
</g>
		<g transform="matrix(1 0 0 1 -31.6635 23.8635)" id="Layer_1">
<path style="stroke: none; stroke-width: 1; stroke-dasharray: none; stroke-linecap: butt; stroke-dashoffset: 0; stroke-linejoin: miter; stroke-miterlimit: 4; is-custom-font: none; font-file-url: none; fill: rgb(58,170,53); fill-rule: nonzero; opacity: 1;" transform=" translate(-224.338, -279.865)" d="M 192.326 303.874 c 8.84 0 16.006 -7.166 16.006 -16.006 v -8.003 c 0 -13.26 10.75 -24.009 24.009 -24.009 c 13.26 0 24.009 10.75 24.009 24.009 c 0 13.259 -10.75 24.009 -24.009 24.009 L 192.326 303.874" stroke-linecap="round"/>
</g>
		<g transform="matrix(1 0 0 1 79.6805 -8.1515)" id="Layer_1">
<circle style="stroke: none; stroke-width: 1; stroke-dasharray: none; stroke-linecap: butt; stroke-dashoffset: 0; stroke-linejoin: miter; stroke-miterlimit: 4; is-custom-font: none; font-file-url: none; fill: rgb(229,162,167); fill-rule: nonzero; opacity: 1;" cx="0" cy="0" r="16.006"/>
</g>
		<g transform="matrix(1 0 0 1 -80.3805 -8.1515)" id="Layer_1">
<circle style="stroke: none; stroke-width: 1; stroke-dasharray: none; stroke-linecap: butt; stroke-dashoffset: 0; stroke-linejoin: miter; stroke-miterlimit: 4; is-custom-font: none; font-file-url: none; fill: rgb(229,162,167); fill-rule: nonzero; opacity: 1;" cx="0" cy="0" r="16.006"/>
</g>
		<g transform="matrix(1 0 0 1 -67.8665 -176.4925)" id="Layer_1">
<path style="stroke: none; stroke-width: 1; stroke-dasharray: none; stroke-linecap: butt; stroke-dashoffset: 0; stroke-linejoin: miter; stroke-miterlimit: 4; is-custom-font: none; font-file-url: none; fill: rgb(255,255,255); fill-rule: nonzero; opacity: 1;" transform=" translate(-188.135, -79.509)" d="M 182.349 99.658 l -13.456 -7.731 c 7.313 -12.729 17.491 -23.991 29.432 -32.567 l 9.052 12.605 C 197.221 79.26 188.566 88.836 182.349 99.658 z" stroke-linecap="round"/>
</g>
		<g transform="matrix(1 0 0 1 -37.798 -199.479)" id="Layer_1">
<path style="stroke: none; stroke-width: 1; stroke-dasharray: none; stroke-linecap: butt; stroke-dashoffset: 0; stroke-linejoin: miter; stroke-miterlimit: 4; is-custom-font: none; font-file-url: none; fill: rgb(255,255,255); fill-rule: nonzero; opacity: 1;" transform=" translate(-218.2035, -56.5225)" d="M 214.733 67.218 l -7.753 -13.442 c 5.504 -3.175 11.327 -5.849 17.306 -7.949 l 5.141 14.642 C 224.352 62.251 219.408 64.522 214.733 67.218 z" stroke-linecap="round"/>
</g>
		<g transform="matrix(1 0 0 1 -63.6755 -80.1765)" id="Layer_1">
<path style="stroke: none; stroke-width: 1; stroke-dasharray: none; stroke-linecap: butt; stroke-dashoffset: 0; stroke-linejoin: miter; stroke-miterlimit: 4; is-custom-font: none; font-file-url: none; fill: rgb(29,29,27); fill-rule: nonzero; opacity: 1;" transform=" translate(-192.326, -175.825)" d="M 192.326 239.606 c -35.17 0 -63.781 -28.612 -63.781 -63.781 s 28.612 -63.781 63.781 -63.781 s 63.781 28.612 63.781 63.781 S 227.495 239.606 192.326 239.606 z M 192.326 127.561 c -26.613 0 -48.263 21.65 -48.263 48.263 s 21.65 48.263 48.263 48.263 s 48.263 -21.65 48.263 -48.263 S 218.939 127.561 192.326 127.561 z" stroke-linecap="round"/>
</g>
		<g transform="matrix(1 0 0 1 -63.6725 -80.1745)" id="Layer_1">
<circle style="stroke: none; stroke-width: 1; stroke-dasharray: none; stroke-linecap: butt; stroke-dashoffset: 0; stroke-linejoin: miter; stroke-miterlimit: 4; is-custom-font: none; font-file-url: none; fill: rgb(163,25,91); fill-rule: nonzero; opacity: 1;" cx="0" cy="0" r="56.019"/>
</g>
		<g transform="matrix(1 0 0 1 64.3745 -80.1765)" id="Layer_1">
<path style="stroke: none; stroke-width: 1; stroke-dasharray: none; stroke-linecap: butt; stroke-dashoffset: 0; stroke-linejoin: miter; stroke-miterlimit: 4; is-custom-font: none; font-file-url: none; fill: rgb(29,29,27); fill-rule: nonzero; opacity: 1;" transform=" translate(-320.376, -175.825)" d="M 320.376 239.606 c -35.168 0 -63.78 -28.612 -63.78 -63.781 s 28.612 -63.781 63.78 -63.781 s 63.78 28.612 63.78 63.781 S 355.545 239.606 320.376 239.606 z M 320.376 127.561 c -26.613 0 -48.262 21.65 -48.262 48.263 s 21.65 48.263 48.262 48.263 s 48.262 -21.65 48.262 -48.263 S 346.988 127.561 320.376 127.561 z" stroke-linecap="round"/>
</g>
		<g transform="matrix(1 0 0 1 64.3805 -80.1745)" id="Layer_1">
<circle style="stroke: none; stroke-width: 1; stroke-dasharray: none; stroke-linecap: butt; stroke-dashoffset: 0; stroke-linejoin: miter; stroke-miterlimit: 4; is-custom-font: none; font-file-url: none; fill: rgb(163,25,91); fill-rule: nonzero; opacity: 1;" cx="0" cy="0" r="56.019"/>
</g>
		<g transform="matrix(1 0 0 1 -52.3645 -168.2125)" id="Layer_1">
<rect style="stroke: none; stroke-width: 1; stroke-dasharray: none; stroke-linecap: butt; stroke-dashoffset: 0; stroke-linejoin: miter; stroke-miterlimit: 4; is-custom-font: none; font-file-url: none; fill: rgb(58,170,53); fill-rule: nonzero; opacity: 1;" x="-20.008" y="-7.759" rx="0" ry="0" width="40.016" height="15.518"/>
</g>
		<g transform="matrix(-0.7071 -0.7071 0.7071 -0.7071 -75.6751 -92.186)" id="Layer_1">
<rect style="stroke: none; stroke-width: 1; stroke-dasharray: none; stroke-linecap: butt; stroke-dashoffset: 0; stroke-linejoin: miter; stroke-miterlimit: 4; is-custom-font: none; font-file-url: none; fill: rgb(255,255,255); fill-rule: nonzero; opacity: 1;" x="-7.759" y="-16.977" rx="0" ry="0" width="15.518" height="33.954"/>
</g>
		<g transform="matrix(-0.7071 -0.7071 0.7071 -0.7071 -51.6744 -68.1713)" id="Layer_1">
<rect style="stroke: none; stroke-width: 1; stroke-dasharray: none; stroke-linecap: butt; stroke-dashoffset: 0; stroke-linejoin: miter; stroke-miterlimit: 4; is-custom-font: none; font-file-url: none; fill: rgb(255,255,255); fill-rule: nonzero; opacity: 1;" x="-7.759" y="-28.295" rx="0" ry="0" width="15.518" height="56.59"/>
</g>
		<g transform="matrix(-0.7071 -0.7071 0.7071 -0.7071 52.3524 -92.1803)" id="Layer_1">
<rect style="stroke: none; stroke-width: 1; stroke-dasharray: none; stroke-linecap: butt; stroke-dashoffset: 0; stroke-linejoin: miter; stroke-miterlimit: 4; is-custom-font: none; font-file-url: none; fill: rgb(255,255,255); fill-rule: nonzero; opacity: 1;" x="-7.759" y="-16.977" rx="0" ry="0" width="15.518" height="33.954"/>
</g>
		<g transform="matrix(-0.7071 -0.7071 0.7071 -0.7071 76.3636 -68.1653)" id="Layer_1">
<rect style="stroke: none; stroke-width: 1; stroke-dasharray: none; stroke-linecap: butt; stroke-dashoffset: 0; stroke-linejoin: miter; stroke-miterlimit: 4; is-custom-font: none; font-file-url: none; fill: rgb(255,255,255); fill-rule: nonzero; opacity: 1;" x="-7.759" y="-28.295" rx="0" ry="0" width="15.518" height="56.59"/>
</g>
		<g transform="matrix(1 0 0 1 -87.6855 243.951)" id="Layer_1">
<path style="stroke: none; stroke-width: 1; stroke-dasharray: none; stroke-linecap: butt; stroke-dashoffset: 0; stroke-linejoin: miter; stroke-miterlimit: 4; is-custom-font: none; font-file-url: none; fill: rgb(210,148,139); fill-rule: nonzero; opacity: 1;" transform=" translate(-168.316, -499.9525)" d="M 144.307 511.957 c 0 -13.259 10.75 -24.009 24.009 -24.009 s 24.009 10.75 24.009 24.009" stroke-linecap="round"/>
</g>
		<g transform="matrix(1 0 0 1 88.384 243.951)" id="Layer_1">
<path style="stroke: none; stroke-width: 1; stroke-dasharray: none; stroke-linecap: butt; stroke-dashoffset: 0; stroke-linejoin: miter; stroke-miterlimit: 4; is-custom-font: none; font-file-url: none; fill: rgb(210,148,139); fill-rule: nonzero; opacity: 1;" transform=" translate(-344.3855, -499.9525)" d="M 320.376 511.957 c 0 -13.259 10.75 -24.009 24.009 -24.009 c 13.259 0 24.01 10.75 24.01 24.009" stroke-linecap="round"/>
</g>
		<g transform="matrix(1 0 0 1 -87.6845 240.0715)" id="Layer_1">
<path style="stroke: none; stroke-width: 1; stroke-dasharray: none; stroke-linecap: butt; stroke-dashoffset: 0; stroke-linejoin: miter; stroke-miterlimit: 4; is-custom-font: none; font-file-url: none; fill: rgb(29,29,27); fill-rule: nonzero; opacity: 1;" transform=" translate(-168.317, -496.073)" d="M 200.085 511.957 h -15.518 c 0 -8.961 -7.289 -16.25 -16.25 -16.25 c -8.961 0 -16.25 7.29 -16.25 16.25 h -15.518 c 0 -17.518 14.252 -31.768 31.768 -31.768 S 200.085 494.439 200.085 511.957 z" stroke-linecap="round"/>
</g>
		<g transform="matrix(1 0 0 1 88.385 240.0715)" id="Layer_1">
<path style="stroke: none; stroke-width: 1; stroke-dasharray: none; stroke-linecap: butt; stroke-dashoffset: 0; stroke-linejoin: miter; stroke-miterlimit: 4; is-custom-font: none; font-file-url: none; fill: rgb(29,29,27); fill-rule: nonzero; opacity: 1;" transform=" translate(-344.3865, -496.073)" d="M 376.155 511.957 h -15.518 c 0 -8.961 -7.29 -16.25 -16.251 -16.25 c -8.96 0 -16.25 7.29 -16.25 16.25 h -15.518 c 0 -17.518 14.25 -31.768 31.768 -31.768 C 361.903 480.189 376.155 494.439 376.155 511.957 z" stroke-linecap="round"/>
</g>
		<g transform="matrix(1 0 0 1 -39.6655 231.9505)" id="Layer_1">
<rect style="stroke: none; stroke-width: 1; stroke-dasharray: none; stroke-linecap: butt; stroke-dashoffset: 0; stroke-linejoin: miter; stroke-miterlimit: 4; is-custom-font: none; font-file-url: none; fill: rgb(29,29,27); fill-rule: nonzero; opacity: 1;" x="-8.003" y="-7.759" rx="0" ry="0" width="16.006" height="15.518"/>
</g>
		<g transform="matrix(1 0 0 1 -7.6575 239.9475)" id="Layer_1">
<rect style="stroke: none; stroke-width: 1; stroke-dasharray: none; stroke-linecap: butt; stroke-dashoffset: 0; stroke-linejoin: miter; stroke-miterlimit: 4; is-custom-font: none; font-file-url: none; fill: rgb(29,29,27); fill-rule: nonzero; opacity: 1;" x="-8.003" y="-7.759" rx="0" ry="0" width="16.006" height="15.518"/>
</g>
		<g transform="matrix(1 0 0 1 32.358 231.9505)" id="Layer_1">
<rect style="stroke: none; stroke-width: 1; stroke-dasharray: none; stroke-linecap: butt; stroke-dashoffset: 0; stroke-linejoin: miter; stroke-miterlimit: 4; is-custom-font: none; font-file-url: none; fill: rgb(29,29,27); fill-rule: nonzero; opacity: 1;" x="-8.0035" y="-7.759" rx="0" ry="0" width="16.007" height="15.518"/>
</g>
		<g transform="matrix(1 0 0 1 64.376 215.9355)" id="Layer_1">
<rect style="stroke: none; stroke-width: 1; stroke-dasharray: none; stroke-linecap: butt; stroke-dashoffset: 0; stroke-linejoin: miter; stroke-miterlimit: 4; is-custom-font: none; font-file-url: none; fill: rgb(29,29,27); fill-rule: nonzero; opacity: 1;" x="-8.0035" y="-7.759" rx="0" ry="0" width="16.007" height="15.518"/>
</g>
		<g transform="matrix(1 0 0 1 -71.6735 207.9395)" id="Layer_1">
<rect style="stroke: none; stroke-width: 1; stroke-dasharray: none; stroke-linecap: butt; stroke-dashoffset: 0; stroke-linejoin: miter; stroke-miterlimit: 4; is-custom-font: none; font-file-url: none; fill: rgb(29,29,27); fill-rule: nonzero; opacity: 1;" x="-8.003" y="-7.759" rx="0" ry="0" width="16.006" height="15.518"/>
</g>
		<g transform="matrix(1 0 0 1 -183.7225 151.9195)" id="Layer_1">
<rect style="stroke: none; stroke-width: 1; stroke-dasharray: none; stroke-linecap: butt; stroke-dashoffset: 0; stroke-linejoin: miter; stroke-miterlimit: 4; is-custom-font: none; font-file-url: none; fill: rgb(29,29,27); fill-rule: nonzero; opacity: 1;" x="-8.003" y="-7.759" rx="0" ry="0" width="16.006" height="15.518"/>
</g>
		<g transform="matrix(1 0 0 1 -127.7035 159.9165)" id="Layer_1">
<rect style="stroke: none; stroke-width: 1; stroke-dasharray: none; stroke-linecap: butt; stroke-dashoffset: 0; stroke-linejoin: miter; stroke-miterlimit: 4; is-custom-font: none; font-file-url: none; fill: rgb(29,29,27); fill-rule: nonzero; opacity: 1;" x="-8.003" y="-7.759" rx="0" ry="0" width="16.006" height="15.518"/>
</g>
		<g transform="matrix(1 0 0 1 -143.7075 111.8945)" id="Layer_1">
<rect style="stroke: none; stroke-width: 1; stroke-dasharray: none; stroke-linecap: butt; stroke-dashoffset: 0; stroke-linejoin: miter; stroke-miterlimit: 4; is-custom-font: none; font-file-url: none; fill: rgb(29,29,27); fill-rule: nonzero; opacity: 1;" x="-8.003" y="-7.759" rx="0" ry="0" width="16.006" height="15.518"/>
</g>
		<g transform="matrix(1 0 0 1 104.392 199.9315)" id="Layer_1">
<rect style="stroke: none; stroke-width: 1; stroke-dasharray: none; stroke-linecap: butt; stroke-dashoffset: 0; stroke-linejoin: miter; stroke-miterlimit: 4; is-custom-font: none; font-file-url: none; fill: rgb(29,29,27); fill-rule: nonzero; opacity: 1;" x="-8.0035" y="-7.759" rx="0" ry="0" width="16.007" height="15.518"/>
</g>
		<g transform="matrix(1 0 0 1 152.4135 111.8945)" id="Layer_1">
<rect style="stroke: none; stroke-width: 1; stroke-dasharray: none; stroke-linecap: butt; stroke-dashoffset: 0; stroke-linejoin: miter; stroke-miterlimit: 4; is-custom-font: none; font-file-url: none; fill: rgb(29,29,27); fill-rule: nonzero; opacity: 1;" x="-8.003" y="-7.759" rx="0" ry="0" width="16.006" height="15.518"/>
</g>
		<g transform="matrix(1 0 0 1 160.411 135.9055)" id="Layer_1">
<rect style="stroke: none; stroke-width: 1; stroke-dasharray: none; stroke-linecap: butt; stroke-dashoffset: 0; stroke-linejoin: miter; stroke-miterlimit: 4; is-custom-font: none; font-file-url: none; fill: rgb(29,29,27); fill-rule: nonzero; opacity: 1;" x="-8.0035" y="-7.759" rx="0" ry="0" width="16.007" height="15.518"/>
</g>
		<g transform="matrix(1 0 0 1 184.4215 151.9195)" id="Layer_1">
<rect style="stroke: none; stroke-width: 1; stroke-dasharray: none; stroke-linecap: butt; stroke-dashoffset: 0; stroke-linejoin: miter; stroke-miterlimit: 4; is-custom-font: none; font-file-url: none; fill: rgb(29,29,27); fill-rule: nonzero; opacity: 1;" x="-8.003" y="-7.759" rx="0" ry="0" width="16.006" height="15.518"/>
</g>
		<g transform="matrix(1 0 0 1 0.3495 71.8795)" id="Layer_1">
<rect style="stroke: none; stroke-width: 1; stroke-dasharray: none; stroke-linecap: butt; stroke-dashoffset: 0; stroke-linejoin: miter; stroke-miterlimit: 4; is-custom-font: none; font-file-url: none; fill: rgb(29,29,27); fill-rule: nonzero; opacity: 1;" x="-8.003" y="-7.759" rx="0" ry="0" width="16.006" height="15.518"/>
</g>
		<g transform="matrix(1 0 0 1 0.001 -0.0225)" id="Layer_1">
<path style="stroke: none; stroke-width: 1; stroke-dasharray: none; stroke-linecap: butt; stroke-dashoffset: 0; stroke-linejoin: miter; stroke-miterlimit: 4; is-custom-font: none; font-file-url: none; fill: rgb(29,29,27); fill-rule: nonzero; opacity: 1;" transform=" translate(-256.0025, -255.979)" d="M 383.486 321.986 l 0.193 -90.384 h 0.022 c 17.518 0 31.768 -14.25 31.768 -31.768 c 0 -17.479 -14.189 -31.704 -31.655 -31.766 l 0.086 -39.99 c 0.072 -34.19 -13.187 -66.347 -37.337 -90.548 C 322.413 13.329 290.285 0 256.096 0 l 0 0 C 185.773 0 128.44 57.211 128.29 127.533 l -0.086 40.532 h -0.602 c -17.518 0 -31.768 14.252 -31.768 31.768 s 14.252 31.768 31.768 31.768 h 0.467 l -0.193 90.83 C 50.27 348.574 0.495 422.224 0.495 511.957 h 15.518 c 0 -80.954 43.538 -147.649 111.872 -173.071 c 1.608 69.093 58.617 124.809 128.467 124.809 c 34.107 0 66.086 -13.302 90.045 -37.456 c 23.322 -23.512 36.412 -54.635 37.032 -87.861 c 32.692 11.829 60.197 33.172 79.957 62.178 c 21.331 31.312 32.606 69.833 32.606 111.402 h 15.518 C 511.507 421.59 461.434 347.613 383.486 321.986 z M 383.783 183.588 c 8.923 0.043 16.17 7.313 16.17 16.247 c 0 8.957 -7.284 16.244 -16.239 16.25 L 383.783 183.588 z M 128.101 216.085 h -0.499 c -8.961 0 -16.25 -7.289 -16.25 -16.25 c 0 -8.961 7.29 -16.25 16.25 -16.25 h 0.568 L 128.101 216.085 z M 367.939 335.888 c 0 30.048 -11.564 58.254 -32.561 79.421 c -21.022 21.194 -49.089 32.867 -79.028 32.867 c -62.302 0 -112.987 -50.372 -112.987 -112.271 l 0.11 -51.453 c 7.323 3.128 17.622 6.25 29.609 6.25 c 8.477 0 17.797 -1.576 27.491 -5.797 v 2.966 c 0 4.548 -3.699 8.247 -8.247 8.247 v 15.518 h 40.015 c 9.582 0 18.18 -4.269 24.009 -11 c 5.83 6.731 14.426 11 24.009 11 h 40.016 v -15.518 c -8.247 0 -8.247 -1.584 -8.247 -8.247 v -3.166 c 7.281 3.043 17.354 5.997 29.019 5.997 c 8.304 0 17.417 -1.505 26.9 -5.536 L 367.939 335.888 z M 214.615 296.116 c 0.954 -2.571 1.475 -5.348 1.475 -8.247 v -8.003 c 0 -8.961 7.289 -16.25 16.25 -16.25 c 8.961 0 16.25 7.29 16.25 16.25 c 0 8.96 -7.29 16.25 -16.25 16.25 L 214.615 296.116 L 214.615 296.116 z M 297.366 296.116 H 280.36 c -8.96 0 -16.25 -7.289 -16.25 -16.25 s 7.29 -16.25 16.25 -16.25 c 8.961 0 16.251 7.29 16.251 16.25 v 8.003 C 296.611 289.73 296.611 292.796 297.366 296.116 z M 368.085 267.855 c -30.62 17.221 -58.041 -1.493 -59.243 -2.332 l -0.087 0.123 c -5.227 -10.395 -15.988 -17.549 -28.395 -17.549 c -0.583 0 -1.164 0.019 -1.741 0.05 c 0.966 -2.584 1.497 -5.379 1.497 -8.297 v -8.003 h -15.518 v 8.003 c 0 4.548 -3.699 8.247 -8.248 8.247 c -4.548 0 -8.247 -3.699 -8.247 -8.247 v -8.003 h -15.518 v 8.003 c 0 2.917 0.531 5.713 1.497 8.297 c -0.577 -0.031 -1.158 -0.05 -1.742 -0.05 c -12.317 0 -23.012 7.051 -28.28 17.325 l -0.018 -0.026 c -27.004 17.906 -52.323 6.488 -60.534 1.818 l 0.108 -50.277 c 11.709 13.85 29.194 22.668 48.708 22.668 c 32.427 0 59.26 -24.331 63.251 -55.692 h 1.551 c 3.988 31.361 30.822 55.692 63.249 55.692 c 19.026 0 36.119 -8.384 47.815 -21.638 L 368.085 267.855 z M 144.062 175.825 c 0 -26.613 21.65 -48.263 48.263 -48.263 s 48.263 21.65 48.263 48.263 s -21.65 48.263 -48.263 48.263 S 144.062 202.438 144.062 175.825 z M 368.268 181.698 c -2.909 23.851 -23.269 42.39 -47.893 42.39 c -26.613 0 -48.262 -21.65 -48.262 -48.263 s 21.65 -48.263 48.262 -48.263 c 24.69 0 45.097 18.64 47.917 42.584 L 368.268 181.698 z M 368.371 133.889 c -11.7 -13.373 -28.871 -21.845 -47.995 -21.845 c -33.838 0 -61.592 26.491 -63.645 59.822 h -0.759 c -2.052 -33.331 -29.808 -59.822 -63.646 -59.822 c -19.418 0 -36.826 8.733 -48.533 22.466 l 0.014 -6.943 c 0.132 -61.785 50.504 -112.049 112.289 -112.049 c 30.038 0 58.266 11.71 79.484 32.973 c 21.218 21.264 32.868 49.516 32.804 79.555 L 368.371 133.889 z" stroke-linecap="round"/>
</g>
</g>
</g>
</svg>