<svg xmlns="http://www.w3.org/2000/svg" xmlns:xlink="http://www.w3.org/1999/xlink" version="1.1" width="100" height="100" viewBox="0 0 100 100" xml:space="preserve">
<desc>Created with Fabric.js 3.5.0</desc>
<defs>
</defs>
<rect x="0" y="0" width="100%" height="100%" fill="#ffffff"/>
<g transform="matrix(0.1922 0 0 0.1941 49.8424 50.3134)" id="461457">
<g style="" vector-effect="non-scaling-stroke">
		<g transform="matrix(1 0 0 1 -0.0005 -36.102)" id="Layer_1">
<path style="stroke: none; stroke-width: 1; stroke-dasharray: none; stroke-linecap: butt; stroke-dashoffset: 0; stroke-linejoin: miter; stroke-miterlimit: 4; is-custom-font: none; font-file-url: none; fill: rgb(237,113,73); fill-rule: nonzero; opacity: 1;" transform=" translate(-255.9995, -219.898)" d="M 223.99 431.967 H 103.95 V 159.878 C 103.95 75.904 172.026 7.829 256 7.829 l 0 0 c 83.974 0 152.049 68.075 152.049 152.049 v 272.089 H 296.014" stroke-linecap="round"/>
</g>
		<g transform="matrix(1 0 0 1 0.062 -0.275)" id="Layer_1">
<path style="stroke: none; stroke-width: 1; stroke-dasharray: none; stroke-linecap: butt; stroke-dashoffset: 0; stroke-linejoin: miter; stroke-miterlimit: 4; is-custom-font: none; font-file-url: none; fill: rgb(232,192,168); fill-rule: nonzero; opacity: 1;" transform=" translate(-256.062, -255.725)" d="M 320.021 119.865 H 183.977 h -8.003 c -8.839 0 -16.005 7.165 -16.005 16.005 v 8.003 v 168.054 c 0 53.037 42.995 96.032 96.032 96.032 s 96.031 -42.995 96.031 -96.032 V 103.859 l 0.123 -0.368 C 344.869 113.374 333.241 119.865 320.021 119.865 z" stroke-linecap="round"/>
</g>
		<g transform="matrix(1 0 0 1 0.001 91.939)" id="Layer_1">
<path style="stroke: none; stroke-width: 1; stroke-dasharray: none; stroke-linecap: butt; stroke-dashoffset: 0; stroke-linejoin: miter; stroke-miterlimit: 4; is-custom-font: none; font-file-url: none; fill: rgb(255,255,255); fill-rule: nonzero; opacity: 1;" transform=" translate(-256.001, -347.939)" d="M 296.014 327.933 c 0 22.098 -17.914 40.012 -40.013 40.012 s -40.013 -17.914 -40.013 -40.012 H 296.014 z" stroke-linecap="round"/>
</g>
		<g transform="matrix(1 0 0 1 62.02 -36.102)" id="Layer_1">
<path style="stroke: none; stroke-width: 1; stroke-dasharray: none; stroke-linecap: butt; stroke-dashoffset: 0; stroke-linejoin: miter; stroke-miterlimit: 4; is-custom-font: none; font-file-url: none; fill: rgb(233,78,27); fill-rule: nonzero; opacity: 1;" transform=" translate(-318.02, -219.898)" d="M 256 7.829 c -9.581 0 -18.919 0.992 -28.009 2.687 c 70.578 13.16 124.04 74.968 124.04 149.362 v 272.089 h 56.018 V 159.878 C 408.05 75.904 339.975 7.829 256 7.829 z" stroke-linecap="round"/>
</g>
		<g transform="matrix(1 0 0 1 -0.7385 215.98)" id="Layer_1">
<path style="stroke: none; stroke-width: 1; stroke-dasharray: none; stroke-linecap: butt; stroke-dashoffset: 0; stroke-linejoin: miter; stroke-miterlimit: 4; is-custom-font: none; font-file-url: none; fill: rgb(164,138,123); fill-rule: nonzero; opacity: 1;" transform=" translate(-255.2615, -471.98)" d="M 304.016 431.967 h -97.508 c -44.198 0 -80.027 35.829 -80.027 80.026 l 0 0 h 257.561 l 0 0 C 384.043 467.796 348.213 431.967 304.016 431.967 z" stroke-linecap="round"/>
</g>
		<g transform="matrix(1 0 0 1 -64.7595 215.98)" id="Layer_1">
<path style="stroke: none; stroke-width: 1; stroke-dasharray: none; stroke-linecap: butt; stroke-dashoffset: 0; stroke-linejoin: miter; stroke-miterlimit: 4; is-custom-font: none; font-file-url: none; fill: rgb(203,187,160); fill-rule: nonzero; opacity: 1;" transform=" translate(-191.2405, -471.98)" d="M 256 431.967 h -49.492 c -44.198 0 -80.027 35.829 -80.027 80.026 l 0 0 H 256 V 431.967 z" stroke-linecap="round"/>
</g>
		<g transform="matrix(1 0 0 1 0 91.939)" id="Layer_1">
<path style="stroke: none; stroke-width: 1; stroke-dasharray: none; stroke-linecap: butt; stroke-dashoffset: 0; stroke-linejoin: miter; stroke-miterlimit: 4; is-custom-font: none; font-file-url: none; fill: rgb(29,29,27); fill-rule: nonzero; opacity: 1;" transform=" translate(-256, -347.939)" d="M 256 375.774 c -26.38 0 -47.842 -21.462 -47.842 -47.841 v -7.829 h 95.684 v 7.829 C 303.843 354.313 282.38 375.774 256 375.774 z M 224.779 335.762 c 3.505 13.976 16.174 24.355 31.221 24.355 c 15.047 0 27.716 -10.379 31.221 -24.355 H 224.779 z" stroke-linecap="round"/>
</g>
		<g transform="matrix(1 0 0 1 0 183.9695)" id="Layer_1">
<path style="stroke: none; stroke-width: 1; stroke-dasharray: none; stroke-linecap: butt; stroke-dashoffset: 0; stroke-linejoin: miter; stroke-miterlimit: 4; is-custom-font: none; font-file-url: none; fill: rgb(232,192,168); fill-rule: nonzero; opacity: 1;" transform=" translate(-256, -439.9695)" d="M 256 471.98 L 256 471.98 c -8.84 0 -16.005 -7.166 -16.005 -16.006 v -48.015 h 32.01 v 48.015 C 272.006 464.814 264.84 471.98 256 471.98 z" stroke-linecap="round"/>
</g>
		<g transform="matrix(1 0 0 1 -112.036 -72.114)" id="Layer_1">
<path style="stroke: none; stroke-width: 1; stroke-dasharray: none; stroke-linecap: butt; stroke-dashoffset: 0; stroke-linejoin: miter; stroke-miterlimit: 4; is-custom-font: none; font-file-url: none; fill: rgb(232,192,168); fill-rule: nonzero; opacity: 1;" transform=" translate(-143.964, -183.886)" d="M 159.969 159.878 h -8.002 c -13.259 0 -24.008 10.748 -24.008 24.008 c 0 13.259 10.749 24.008 24.008 24.008 h 8.002" stroke-linecap="round"/>
</g>
		<g transform="matrix(1 0 0 1 112.0365 -72.114)" id="Layer_1">
<path style="stroke: none; stroke-width: 1; stroke-dasharray: none; stroke-linecap: butt; stroke-dashoffset: 0; stroke-linejoin: miter; stroke-miterlimit: 4; is-custom-font: none; font-file-url: none; fill: rgb(232,192,168); fill-rule: nonzero; opacity: 1;" transform=" translate(-368.0365, -183.886)" d="M 352.031 159.878 h 8.003 c 13.259 0 24.008 10.748 24.008 24.008 c 0 13.259 -10.749 24.008 -24.008 24.008 h -8.003" stroke-linecap="round"/>
</g>
		<g transform="matrix(1 0 0 1 0.0875 -0.1775)" id="Layer_1">
<polygon style="stroke: none; stroke-width: 1; stroke-dasharray: none; stroke-linecap: butt; stroke-dashoffset: 0; stroke-linejoin: miter; stroke-miterlimit: 4; is-custom-font: none; font-file-url: none; fill: rgb(29,29,27); fill-rule: nonzero; opacity: 1;" points="15.9185,31.9235 -15.9185,31.9235 -15.9185,-31.9235 -0.2615,-31.9235 -0.2615,16.2655 15.9185,16.2655 "/>
</g>
		<g transform="matrix(1 0 0 1 48.016 -57.5435)" id="Layer_1">
<polygon style="stroke: none; stroke-width: 1; stroke-dasharray: none; stroke-linecap: butt; stroke-dashoffset: 0; stroke-linejoin: miter; stroke-miterlimit: 4; is-custom-font: none; font-file-url: none; fill: rgb(29,29,27); fill-rule: nonzero; opacity: 1;" points="7.829,17.4395 -7.829,17.4395 -7.829,-17.1915 7.829,-17.4395 "/>
</g>
		<g transform="matrix(1 0 0 1 -48.016 -56.113)" id="Layer_1">
<rect style="stroke: none; stroke-width: 1; stroke-dasharray: none; stroke-linecap: butt; stroke-dashoffset: 0; stroke-linejoin: miter; stroke-miterlimit: 4; is-custom-font: none; font-file-url: none; fill: rgb(29,29,27); fill-rule: nonzero; opacity: 1;" x="-7.829" y="-16.005" rx="0" ry="0" width="15.658" height="32.01"/>
</g>
		<g transform="matrix(1 0 0 1 56.023 31.921)" id="Layer_1">
<circle style="stroke: none; stroke-width: 1; stroke-dasharray: none; stroke-linecap: butt; stroke-dashoffset: 0; stroke-linejoin: miter; stroke-miterlimit: 4; is-custom-font: none; font-file-url: none; fill: rgb(229,162,167); fill-rule: nonzero; opacity: 1;" cx="0" cy="0" r="16.005"/>
</g>
		<g transform="matrix(1 0 0 1 -56.022 31.921)" id="Layer_1">
<circle style="stroke: none; stroke-width: 1; stroke-dasharray: none; stroke-linecap: butt; stroke-dashoffset: 0; stroke-linejoin: miter; stroke-miterlimit: 4; is-custom-font: none; font-file-url: none; fill: rgb(229,162,167); fill-rule: nonzero; opacity: 1;" cx="0" cy="0" r="16.005"/>
</g>
		<g transform="matrix(1 0 0 1 -52.019 -112.128)" id="Layer_1">
<rect style="stroke: none; stroke-width: 1; stroke-dasharray: none; stroke-linecap: butt; stroke-dashoffset: 0; stroke-linejoin: miter; stroke-miterlimit: 4; is-custom-font: none; font-file-url: none; fill: rgb(233,78,27); fill-rule: nonzero; opacity: 1;" x="-20.005" y="-7.829" rx="0" ry="0" width="40.01" height="15.658"/>
</g>
		<g transform="matrix(1 0 0 1 52.02 -80.114)" id="Layer_1">
<rect style="stroke: none; stroke-width: 1; stroke-dasharray: none; stroke-linecap: butt; stroke-dashoffset: 0; stroke-linejoin: miter; stroke-miterlimit: 4; is-custom-font: none; font-file-url: none; fill: rgb(233,78,27); fill-rule: nonzero; opacity: 1;" x="-20.005" y="-7.829" rx="0" ry="0" width="40.01" height="15.658"/>
</g>
		<g transform="matrix(1 0 0 1 0.366 247.9915)" id="Layer_1">
<rect style="stroke: none; stroke-width: 1; stroke-dasharray: none; stroke-linecap: butt; stroke-dashoffset: 0; stroke-linejoin: miter; stroke-miterlimit: 4; is-custom-font: none; font-file-url: none; fill: rgb(233,78,27); fill-rule: nonzero; opacity: 1;" x="-72.39" y="-8.0025" rx="0" ry="0" width="144.78" height="16.005"/>
</g>
		<g transform="matrix(1 0 0 1 0.0005 -0.0035)" id="Layer_1">
<path style="stroke: none; stroke-width: 1; stroke-dasharray: none; stroke-linecap: butt; stroke-dashoffset: 0; stroke-linejoin: miter; stroke-miterlimit: 4; is-custom-font: none; font-file-url: none; fill: rgb(29,29,27); fill-rule: nonzero; opacity: 1;" transform=" translate(-256.0005, -255.9965)" d="M 415.878 159.878 C 415.878 71.721 344.158 0 256 0 S 96.122 71.721 96.122 159.878 v 279.918 h 61.887 c -22.866 15.878 -37.879 42.311 -37.879 72.197 h 15.658 c 0 -39.81 32.387 -72.197 72.198 -72.197 h 24.181 v 16.179 c 0 13.142 10.692 23.834 23.834 23.834 s 23.834 -10.692 23.834 -23.834 v -16.179 h 24.181 c 39.811 0 72.198 32.387 72.198 72.197 h 15.658 c 0 -29.886 -15.012 -56.319 -37.879 -72.197 h 61.886 L 415.878 159.878 L 415.878 159.878 z M 256 400.13 c -48.635 0 -88.203 -39.567 -88.203 -88.202 V 135.87 c 0 -4.508 3.668 -8.176 8.176 -8.176 h 144.047 c 8.815 0 17.082 -2.398 24.182 -6.573 v 190.808 C 344.203 360.564 304.636 400.13 256 400.13 z M 264.177 455.975 c 0 4.508 -3.668 8.176 -8.176 8.176 c -4.508 0 -8.176 -3.668 -8.176 -8.176 v -40.188 h 16.353 V 455.975 z M 400.221 424.138 h -8.35 v -40.187 h -15.658 v 40.187 h -8.351 v -16.179 h -15.658 v 16.179 h -8.351 v -24.181 h -15.658 v 24.181 h -8.35 v -16.179 H 304.19 v 16.179 h -0.174 h -8.002 h -16.179 v -11.114 c 45.82 -10.801 80.027 -52.027 80.027 -101.096 v -96.206 h 0.173 c 17.554 0 31.837 -14.282 31.837 -31.836 s -14.283 -31.837 -31.837 -31.837 h -0.173 v -45.735 c 5.053 -7.583 8.002 -16.685 8.002 -26.462 h -15.658 c 0 17.746 -14.438 32.184 -32.185 32.184 H 175.974 c -13.142 0 -23.834 10.692 -23.834 23.834 v 16.179 h -0.173 c -17.554 0 -31.837 14.283 -31.837 31.837 s 14.283 31.836 31.837 31.836 h 0.173 v 96.206 c 0 49.07 34.208 90.296 80.027 101.096 v 11.114 h -8.176 h -16.005 h -0.174 v -16.179 h -15.658 v 16.179 h -8.351 v -24.181 h -15.658 v 24.181 h -8.35 v -16.179 h -15.658 v 16.179 h -8.351 v -40.187 H 120.13 v 40.187 h -8.351 v -264.26 c 0 -79.524 64.697 -144.22 144.221 -144.22 c 79.524 0 144.22 64.697 144.22 144.22 V 424.138 z M 359.861 167.707 h 0.173 c 8.922 0 16.179 7.258 16.179 16.179 c 0 8.921 -7.258 16.178 -16.179 16.178 h -0.173 V 167.707 z M 152.14 200.065 h -0.173 c -8.922 0 -16.179 -7.258 -16.179 -16.178 c 0 -8.922 7.258 -16.179 16.179 -16.179 h 0.173 V 200.065 z" stroke-linecap="round"/>
</g>
		<g transform="matrix(1 0 0 1 0.0005 239.9875)" id="Layer_1">
<polygon style="stroke: none; stroke-width: 1; stroke-dasharray: none; stroke-linecap: butt; stroke-dashoffset: 0; stroke-linejoin: miter; stroke-miterlimit: 4; is-custom-font: none; font-file-url: none; fill: rgb(29,29,27); fill-rule: nonzero; opacity: 1;" points="64.1675,-15.9975 64.1735,-7.8285 -64.1875,-7.8285 -64.1945,-16.0125 -79.8525,-15.9975 -79.8255,16.0125 -64.1675,15.9975 -64.1735,7.8285 64.1875,7.8285 64.1945,16.0125 79.8525,15.9975 79.8255,-16.0125 "/>
</g>
		<g transform="matrix(1 0 0 1 52.9385 -197.034)" id="Layer_1">
<path style="stroke: none; stroke-width: 1; stroke-dasharray: none; stroke-linecap: butt; stroke-dashoffset: 0; stroke-linejoin: miter; stroke-miterlimit: 4; is-custom-font: none; font-file-url: none; fill: rgb(255,255,255); fill-rule: nonzero; opacity: 1;" transform=" translate(-308.9385, -58.966)" d="M 319.483 83.467 c -7.635 -14.963 -20.078 -27.415 -35.037 -35.062 l 7.127 -13.94 c 17.869 9.135 32.735 24.01 41.858 41.886 L 319.483 83.467 z" stroke-linecap="round"/>
</g>
</g>
</g>
</svg>